<?xml version="1.0" encoding="utf-8"?>
<!-- Generator: Adobe Illustrator 22.0.1, SVG Export Plug-In . SVG Version: 6.00 Build 0)  -->
<svg version="1.1" id="Capa_1" xmlns="http://www.w3.org/2000/svg" xmlns:xlink="http://www.w3.org/1999/xlink" x="0px" y="0px"
	 viewBox="0 0 393.2 393.2" style="enable-background:new 0 0 393.2 393.2;" xml:space="preserve">
<style type="text/css">
	.st0{fill:#E84D3D;}
</style>
<path class="st0" d="M360.3,117h-72.8V76.1c0-18.2-14.8-32.9-32.9-32.9H32.9C14.8,43.2,0,57.9,0,76.1v126.3
	c0,18.2,14.8,32.9,32.9,32.9h16.9v33.4c0,3.1,1.9,5.8,4.7,7c0.9,0.4,1.9,0.5,2.8,0.5c2,0,4-0.8,5.4-2.3l37.1-38.6h5.9v40.9
	c0,18.2,14.8,32.9,32.9,32.9h154.7l37.1,38.6c1.4,1.5,3.4,2.3,5.4,2.3c0.9,0,1.9-0.2,2.8-0.5c2.8-1.1,4.7-3.9,4.7-7v-33.4h16.9
	c18.2,0,32.9-14.8,32.9-32.9V150C393.2,131.8,378.4,117,360.3,117z M105.7,150v70.3h-9.1c-2,0-4,0.8-5.4,2.3l-26.4,27.5v-22.3
	c0-4.1-3.4-7.5-7.5-7.5H32.9c-9.9,0-17.9-8-17.9-17.9V76.1c0-9.9,8-17.9,17.9-17.9h221.6c9.9,0,17.9,8.1,17.9,17.9V117H138.7
	C120.5,117,105.7,131.8,105.7,150z M378.2,276.2c0,9.9-8,17.9-17.9,17.9h-24.4c-4.1,0-7.5,3.4-7.5,7.5V324L302,296.5
	c-1.4-1.5-3.4-2.3-5.4-2.3H138.7c-9.9,0-17.9-8-17.9-17.9V150c0-9.9,8-17.9,17.9-17.9h221.6c9.9,0,17.9,8,17.9,17.9L378.2,276.2
	L378.2,276.2z"/>
</svg>
