<?xml version="1.0" encoding="utf-8"?>
<!-- Generator: Adobe Illustrator 22.0.1, SVG Export Plug-In . SVG Version: 6.00 Build 0)  -->
<svg version="1.1" id="Layer_1" xmlns="http://www.w3.org/2000/svg" xmlns:xlink="http://www.w3.org/1999/xlink" x="0px" y="0px"
	 viewBox="0 0 512 512" style="enable-background:new 0 0 512 512;" xml:space="preserve">
<style type="text/css">
	.st0{fill:#FFFFFF;}
</style>
<g>
	<g>
		<path class="st0" d="M383,52.3C348.6,18.2,303.1-0.3,254.7,0C156.3,0.7,76,81.3,75.8,179.7c-0.1,31.9,8.2,63.2,24.1,90.7
			c15.4,26.6,37.5,49,63.9,64.8c13.4,8,21.7,22.6,21.7,38.2v21.4c-6.2,3.6-10.4,10.4-10.4,18.1c0,4.9,1.7,9.5,4.6,13.1
			c-2.9,3.6-4.6,8.1-4.6,13.1s1.7,9.5,4.6,13.1c-2.9,3.6-4.6,8.1-4.6,13.1c0,11.5,9.4,20.9,20.9,20.9h7.8l10.5,26.1h83.8l10.4-26.1
			h7.8c11.5,0,20.9-9.4,20.9-20.9c0-4.9-1.7-9.5-4.6-13.1c2.9-3.6,4.6-8.1,4.6-13.1s-1.7-9.5-4.6-13.1c2.9-3.6,4.6-8.1,4.6-13.1
			c0-7.7-4.2-14.5-10.4-18.1v-21.4c0-15.5,8.4-30.2,21.9-38.3c26.3-15.7,48.3-38,63.6-64.5c15.8-27.3,24.2-58.5,24.2-90.2
			C436.2,131.9,417.3,86.4,383,52.3z M287.3,496.3h-62.5l-4.2-10.4h70.9L287.3,496.3z M316.1,470.2H195.9c-2.9,0-5.2-2.3-5.2-5.2
			s2.3-5.2,5.2-5.2h120.2c2.9,0,5.2,2.3,5.2,5.2S319,470.2,316.1,470.2z M316.1,444.1H195.9c-2.9,0-5.2-2.3-5.2-5.2s2.3-5.2,5.2-5.2
			h120.2c2.9,0,5.2,2.3,5.2,5.2S319,444.1,316.1,444.1z M316.1,418H195.9c-2.9,0-5.2-2.3-5.2-5.2c0-2.9,2.3-5.2,5.2-5.2h120.2
			c2.9,0,5.2,2.3,5.2,5.2C321.3,415.6,319,418,316.1,418z M226.2,391.8V260.2c0-2.3,1.9-4.2,4.2-4.2s4.2,1.9,4.2,4.2v131.7H226.2z
			 M277.4,391.8V260.2c0-2.3,1.9-4.2,4.2-4.2s4.2,1.9,4.2,4.2v131.7H277.4z M398.5,262.6c-14,24.2-34.1,44.6-58.1,58.9
			c-18.2,10.9-29.5,30.7-29.5,51.7v18.6h-9.4V260.2c0-10.9-8.9-19.9-19.9-19.9s-19.9,8.9-19.9,19.9v131.7h-11.5V260.2
			c0-10.9-8.9-19.9-19.9-19.9c-10.9,0-19.9,8.9-19.9,19.9v131.7h-9.4v-18.6c0-21-11.2-40.8-29.4-51.6
			c-24.1-14.4-44.3-34.8-58.4-59.1c-14.5-25-22.1-53.7-22-82.8C91.7,89.9,165,16.3,254.8,15.7c0.4,0,0.8,0,1.2,0
			c43.7,0,84.9,16.9,115.9,47.8c31.4,31.1,48.6,72.6,48.6,116.8C420.6,209.2,412.9,237.7,398.5,262.6z"/>
	</g>
</g>
</svg>
