<?xml version="1.0" encoding="utf-8"?>
<!-- Generator: Adobe Illustrator 22.0.1, SVG Export Plug-In . SVG Version: 6.00 Build 0)  -->
<svg version="1.1" id="Слой_1" xmlns="http://www.w3.org/2000/svg" xmlns:xlink="http://www.w3.org/1999/xlink" x="0px" y="0px"
	 viewBox="0 0 19.9 17.5" style="enable-background:new 0 0 19.9 17.5;" xml:space="preserve">
<style type="text/css">
	.st0{fill:#9A999A;}
</style>
<path id="google_plus" class="st0" d="M9.8,10.2c-0.7-0.4-1.2-1-1.5-1.7c0-0.6,0.2-0.9,1.1-1.7c0.9-0.6,1.5-1.7,1.5-2.8
	c0-1.4-0.5-3.1-1.7-3.1h1.8L12.2,0H6.6C4.1,0,1.7,1.8,1.7,4c0,2.2,1.7,4,3.9,4C5.7,8,5.9,8,6,8h0.5C6.3,8.3,6.2,8.6,6.2,9
	c0,0.6,0.3,1.2,0.8,1.6H6c-3.1,0-6,1.7-6,3.7c0,2.1,3.1,3.2,6.2,3.2c3.6,0,5.4-1.6,5.4-3.6C11.8,12.4,11.1,11,9.8,10.2z M6.8,7.4
	C5.3,7.3,3.9,5.8,3.7,3.8C3.4,1.9,4.4,0.5,5.9,0.5C7.3,0.6,8.7,2.1,9,4S8.2,7.4,6.8,7.4L6.8,7.4z M6.2,16.6c-2.2,0-3.7-0.9-3.7-2.6
	c0-1.6,1.9-2.9,4.1-2.9c0.5,0,0.9,0.1,1.4,0.2c1.2,0.9,1.8,1.3,2,2.3c0.1,0.2,0.1,0.3,0.1,0.5C10.1,15.8,9.3,16.6,6.2,16.6L6.2,16.6
	z M17.5,0.8v2.6h2.5V5h-2.5v2.5h-1.7V5h-2.5V3.4h2.5V0.8H17.5L17.5,0.8z"/>
</svg>
