<?xml version="1.0" encoding="utf-8"?>
<!-- Generator: Adobe Illustrator 22.0.1, SVG Export Plug-In . SVG Version: 6.00 Build 0)  -->
<svg version="1.1" id="Слой_1" xmlns="http://www.w3.org/2000/svg" xmlns:xlink="http://www.w3.org/1999/xlink" x="0px" y="0px"
	 viewBox="0 0 19.9 17.5" style="enable-background:new 0 0 19.9 17.5;" xml:space="preserve">
<style type="text/css">
	.st0{fill:#E84D3D;}
</style>
<path id="vimeo" class="st0" d="M0,4.8c1.8-1.4,4.2-4,6.2-4s2.4,1.8,2.7,3.9c0.3,2,1,6.5,2.1,6.5s3.4-4,3.2-5.5s-1.8-1.3-2.8-0.8
	C12.3,1.8,14.2,0,16.8,0s3.1,1.9,3.1,4.1c0,3.3-6.8,13.4-10.9,13.4c-2.5,0-3.2-3.7-3.7-5.5S3.8,5.4,2.7,5.1C2,5.3,1.4,5.6,0.9,6
	L0,4.8z"/>
</svg>
