<?xml version="1.0" encoding="utf-8"?>
<!-- Generator: Adobe Illustrator 22.0.1, SVG Export Plug-In . SVG Version: 6.00 Build 0)  -->
<svg version="1.1" id="Capa_1" xmlns="http://www.w3.org/2000/svg" xmlns:xlink="http://www.w3.org/1999/xlink" x="0px" y="0px"
	 viewBox="0 0 60 60" style="enable-background:new 0 0 60 60;" xml:space="preserve">
<style type="text/css">
	.st0{fill:#E84D3D;}
</style>
<path class="st0" d="M59,28h-2.2c-1-5.7-5.8-10-11.7-10c-5.8,0-10.7,4.1-11.8,9.6c-1-0.8-2.1-1.2-3.2-1.2c-1.2,0-2.3,0.4-3.2,1.2
	c-1.1-5.5-5.9-9.6-11.7-9.6c-6.3,0-11.5,4.9-12,11H1c-0.6,0-1,0.4-1,1s0.4,1,1,1h2.1c0.5,6.1,5.7,11,12,11c6.5,0,11.7-5.2,11.9-11.7
	c0.9-1.3,1.9-2,3-2s2.2,0.7,3,2C33.2,36.8,38.5,42,45.1,42C51.6,42,57,36.6,57,30h2c0.6,0,1-0.4,1-1S59.6,28,59,28z M15.1,40
	C9.5,40,5,35.5,5,30s4.5-10,10.1-10c5.6,0,9.9,4.4,9.9,10S20.6,40,15.1,40z M45.1,40C39.5,40,35,35.5,35,30s4.5-10,10.1-10
	c5.6,0,9.9,4.4,9.9,10S50.6,40,45.1,40z"/>
</svg>
