<?xml version="1.0" encoding="utf-8"?>
<!-- Generator: Adobe Illustrator 22.0.1, SVG Export Plug-In . SVG Version: 6.00 Build 0)  -->
<svg version="1.1" id="Слой_1" xmlns="http://www.w3.org/2000/svg" xmlns:xlink="http://www.w3.org/1999/xlink" x="0px" y="0px"
	 viewBox="0 0 20.2 18.6" style="enable-background:new 0 0 20.2 18.6;" xml:space="preserve">
<style type="text/css">
	.st0{fill:#E84D3D;}
</style>
<path id="linkedin" class="st0" d="M0.3,18.6h4.1V6.1H0.3V18.6z M15.1,5.7c-1.6-0.1-3.2,0.7-4,2.1V6.1H7v12.5h4.1v-6.8
	c0-1.4,0.7-2.8,2.4-2.8c1.5,0,2.7,1.3,2.6,2.8c0,0,0,0,0,0v6.8h4.1v-7.1C20.2,6.6,16.9,5.7,15.1,5.7L15.1,5.7z M2.4,0
	c-1.2,0.1-2.1,1.2-2,2.4s1.2,2.1,2.4,2c1.1-0.1,2-1.1,2-2.2C4.8,0.9,3.7-0.1,2.4,0L2.4,0z"/>
</svg>
