<?xml version="1.0" encoding="utf-8"?>
<!-- Generator: Adobe Illustrator 22.0.1, SVG Export Plug-In . SVG Version: 6.00 Build 0)  -->
<svg version="1.1" id="Слой_1" xmlns="http://www.w3.org/2000/svg" xmlns:xlink="http://www.w3.org/1999/xlink" x="0px" y="0px"
	 viewBox="0 0 19.7 16.4" style="enable-background:new 0 0 19.7 16.4;" xml:space="preserve">
<style type="text/css">
	.st0{fill:#E74C3C;}
</style>
<path id="twitter" class="st0" d="M19.6,2.1c-0.7,0.3-1.5,0.5-2.3,0.6c0.8-0.5,1.4-1.3,1.7-2.2c-0.8,0.4-1.7,0.7-2.6,0.9l0,0
	c-0.8-0.9-1.8-1.4-3-1.4c-2.2,0.1-4,2-3.9,4.2c0,0.3,0,0.7,0.1,1l0,0C6.3,5,3.2,3.4,1.1,0.7C0,2.6,0.6,5,2.3,6.3
	c-0.6,0.1-1.2,0-1.8-0.4c-0.1,1.9,1.3,3.6,3.2,4C3.1,10.1,2.6,10.1,2,10c0.5,1.6,2,2.8,3.7,2.8c-1.6,1.5-3.8,2.1-5.9,1.7
	c1.9,1.2,4.2,1.8,6.4,1.8c6.4,0.1,11.7-5,11.8-11.4c0-0.2,0-0.4,0-0.6l0,0V4.2l0,0C18.6,3.6,19.2,2.9,19.6,2.1z"/>
</svg>
