<?xml version="1.0" encoding="utf-8"?>
<!-- Generator: Adobe Illustrator 22.0.1, SVG Export Plug-In . SVG Version: 6.00 Build 0)  -->
<svg version="1.1" id="Слой_1" xmlns="http://www.w3.org/2000/svg" xmlns:xlink="http://www.w3.org/1999/xlink" x="0px" y="0px"
	 viewBox="0 0 19.9 20" style="enable-background:new 0 0 19.9 20;" xml:space="preserve">
<style type="text/css">
	.st0{fill:#E84D3D;}
</style>
<path id="rss" class="st0" d="M2.9,14.2c-1.6,0-2.9,1.3-2.9,2.9C0,18.7,1.3,20,2.9,20c1.6,0,2.9-1.3,2.9-2.9S4.5,14.2,2.9,14.2
	C2.9,14.2,2.9,14.2,2.9,14.2z M0.2,6.7H0v3.7h0.2c5.2,0.1,9.3,4.2,9.4,9.4c0,0,0,0.1,0,0.2h3.7c0-0.1,0-0.2,0-0.2
	C13.2,12.6,7.4,6.7,0.2,6.7z M0.2,0H0v3.7h0.2c8.9,0.1,16,7.2,16.1,16.1c0,0,0,0.1,0,0.2h3.6c0-0.1,0-0.2,0-0.2
	C19.8,8.9,11,0.1,0.2,0z"/>
</svg>
