<?xml version="1.0" encoding="utf-8"?>
<!-- Generator: Adobe Illustrator 22.0.1, SVG Export Plug-In . SVG Version: 6.00 Build 0)  -->
<svg version="1.1" id="Capa_1" xmlns="http://www.w3.org/2000/svg" xmlns:xlink="http://www.w3.org/1999/xlink" x="0px" y="0px"
	 viewBox="0 0 511 511" style="enable-background:new 0 0 511 511;" xml:space="preserve">
<style type="text/css">
	.st0{fill:#FFFFFF;}
</style>
<path class="st0" d="M407.5,0h-304C81.7,0,64,17.7,64,39.5v440c0,11.7,6.2,22.1,16.5,27.7c4.8,2.6,9.9,3.9,15,3.9
	c6,0,11.9-1.7,17.2-5.2l142.8-93.1l142.8,93.1c9.8,6.4,21.9,6.9,32.2,1.3c10.3-5.6,16.5-16,16.5-27.7v-440C447,17.7,429.3,0,407.5,0
	z M432,479.5c0,6.2-3.2,11.6-8.6,14.5c-5.4,2.9-11.7,2.7-16.9-0.7l-146.9-95.8c-1.2-0.8-2.7-1.2-4.1-1.2c-1.4,0-2.9,0.4-4.1,1.2
	l-146.9,95.8c-5.2,3.4-11.5,3.6-16.9,0.7s-8.6-8.4-8.6-14.5v-440C79,26,90,15,103.5,15h8.5v432.5c0,4.1,3.4,7.5,7.5,7.5
	s7.5-3.4,7.5-7.5V15h257v432.5c0,4.1,3.4,7.5,7.5,7.5s7.5-3.4,7.5-7.5V15h8.5C421,15,432,26,432,39.5V479.5z"/>
</svg>
