<?xml version="1.0" encoding="utf-8"?>
<!-- Generator: Adobe Illustrator 22.0.1, SVG Export Plug-In . SVG Version: 6.00 Build 0)  -->
<svg version="1.1" id="Capa_1" xmlns="http://www.w3.org/2000/svg" xmlns:xlink="http://www.w3.org/1999/xlink" x="0px" y="0px"
	 viewBox="0 0 494 494" style="enable-background:new 0 0 494 494;" xml:space="preserve">
<style type="text/css">
	.st0{fill:#FFFFFF;}
</style>
<g>
	<g>
		<g>
			<path class="st0" d="M487.1,251c-4-26-23-48-52-57c-15-5-42-11-63-16c39-56,46-113,32-146c-9-20-25-32-46-32c-45,0-52,41-62,69
				c-7,21-42,59-94,88c-39,22-76,51-78,52c-5,4-8,10-8,17v210c0,7,3,13,9,17c31,22,142,41,197,41c29,0,40-5,46-8c25-14,58-93,82-160
				C478.1,305,491.1,278,487.1,251z M419.1,294c-4,3-6,7-8,11c-22,60-53,131-65,143c-2,1-8,3-24,3c-52,0-132-16-162-28V237
				c13-10,38-28,63-42c56-32,103-76,115-112c1-4,2-9,3-13c9-27,11-27,17-27c2,0,4,0,7,6c9,21,1,75-47,127c-12,13-4,33,11,36
				c1,0,66,15,93,23c13,4,21,13,22,22C446.1,269,436.1,282,419.1,294z"/>
			<path class="st0" d="M41.1,188c-20,0-35,15-35,35v215c0,20,15,35,35,35s36-15,36-35V223C77.1,203,61.1,188,41.1,188z"/>
		</g>
	</g>
</g>
</svg>
