<?xml version="1.0" encoding="utf-8"?>
<!-- Generator: Adobe Illustrator 22.0.1, SVG Export Plug-In . SVG Version: 6.00 Build 0)  -->
<svg version="1.1" id="Layer_1" xmlns="http://www.w3.org/2000/svg" xmlns:xlink="http://www.w3.org/1999/xlink" x="0px" y="0px"
	 viewBox="0 0 619.7 192.6" style="enable-background:new 0 0 619.7 192.6;" xml:space="preserve">
<style type="text/css">
	.st0{fill:#FFFFFF;}
</style>
<g>
	<path class="st0" d="M110.8,29.8v9.8H59.2c-2.7,0-5,0.9-6.8,2.7s-2.7,4-2.7,6.7v4c0,2.7,0.9,5,2.7,6.7c1.8,1.8,4,2.7,6.8,2.7h39.2
		c4.9,0,9,1.7,12.5,5.1c3.4,3.4,5.2,7.6,5.2,12.4v10.5c0,4.9-1.7,9-5.2,12.4c-3.4,3.4-7.6,5.1-12.5,5.1H41.8v-9.8H96
		c2.7,0,5-0.9,6.8-2.7c1.8-1.8,2.7-4,2.7-6.7v-7c0-2.7-0.9-5-2.7-6.7c-1.8-1.8-4-2.6-6.8-2.6H56.7c-4.9,0-9-1.7-12.5-5.1
		c-3.4-3.4-5.2-7.6-5.2-12.4v-7.6c0-4.9,1.7-9,5.2-12.4c3.4-3.4,7.6-5.1,12.5-5.1C56.7,29.8,110.8,29.8,110.8,29.8z"/>
	<path class="st0" d="M182.2,92.8c0,4.2-1.7,7.8-5,10.8s-7.3,4.5-12,4.5h-25.6c-4.7,0-8.7-1.5-12-4.5s-5-6.6-5-10.8V50.3H133v40.2
		c0,2.4,0.9,4.3,2.6,5.9c1.7,1.5,3.9,2.3,6.5,2.3h20.6c2.6,0,4.7-0.8,6.5-2.3c1.7-1.5,2.6-3.5,2.6-5.9V50.3h10.5v42.5H182.2z"/>
	<path class="st0" d="M248.3,108.1h-10.5V67.9c0-2.4-0.9-4.3-2.6-5.9c-1.7-1.6-3.9-2.3-6.5-2.3h-20.6c-2.6,0-4.7,0.8-6.5,2.3
		c-1.7,1.6-2.6,3.5-2.6,5.9v40.2h-10.4V65.7c0-4.2,1.7-7.8,5-10.9c3.3-3,7.3-4.5,12-4.5h25.6c4.7,0,8.7,1.5,12,4.5s5,6.6,5,10.9
		v42.4H248.3z"/>
	<path class="st0" d="M358.8,29.8v9.8h-51.5c-2.7,0-5,0.9-6.8,2.7s-2.7,4-2.7,6.7v4c0,2.7,0.9,5,2.7,6.7c1.8,1.8,4,2.7,6.8,2.7h39.2
		c4.9,0,9,1.7,12.5,5.1c3.4,3.4,5.2,7.6,5.2,12.4v10.5c0,4.9-1.7,9-5.2,12.4c-3.4,3.4-7.6,5.1-12.5,5.1h-56.7v-9.8H344
		c2.7,0,5-0.9,6.8-2.7c1.8-1.8,2.7-4,2.7-6.7v-7c0-2.7-0.9-5-2.7-6.7c-1.8-1.8-4-2.6-6.8-2.6h-39.2c-4.9,0-9-1.7-12.5-5.1
		c-3.4-3.4-5.2-7.6-5.2-12.4v-7.6c0-4.9,1.7-9,5.2-12.4c3.4-3.4,7.6-5.1,12.5-5.1C304.8,29.8,358.8,29.8,358.8,29.8z"/>
	<path class="st0" d="M430.2,92.8c0,4.2-1.7,7.8-5,10.8s-7.3,4.5-12,4.5h-25.6c-4.7,0-8.7-1.5-12-4.5s-5-6.6-5-10.8V50.3H381v40.2
		c0,2.4,0.9,4.3,2.6,5.9c1.7,1.5,3.9,2.3,6.5,2.3h20.6c2.6,0,4.7-0.8,6.5-2.3c1.7-1.5,2.6-3.5,2.6-5.9V50.3h10.5v42.5H430.2z"/>
	<path class="st0" d="M479.8,50.3v9.3h-23.6c-2.6,0-4.7,0.8-6.5,2.3c-1.7,1.6-2.6,3.5-2.6,5.9V108h-10.4V65.7c0-4.2,1.7-7.8,5-10.8
		s7.3-4.5,12-4.5L479.8,50.3L479.8,50.3z"/>
	<path class="st0" d="M523.7,29.8v9.3h-18.3c-2.3,0-4.3,0.8-5.8,2.5c-1.6,1.6-2.3,3.6-2.3,5.8v2.9h26.4v9.4h-26.5
		c0,7.4,0.1,23.5,0.1,48.4h-10.4V45.2c0-4.2,1.7-7.8,5-10.8s7.4-4.5,12.1-4.5h19.7L523.7,29.8L523.7,29.8z"/>
	<path class="st0" d="M582.7,50.3v8.8c-7.1,0-19.2,0-36.2,0.1c-1.6,0-2.9,0.4-3.8,1.3c-1,0.8-1.5,1.9-1.5,3.3v6.1
		c0,1.3,0.5,2.4,1.5,3.3c1,0.8,2.3,1.3,3.8,1.3H574c3.8,0,7.1,1.2,9.8,3.5s4,5.1,4,8.4v10.2c0,3.3-1.3,6.1-4,8.3
		c-2.7,2.3-6,3.4-9.8,3.4h-40.6v-8.8h38.8c1.6,0,2.9-0.4,3.8-1.3c1-0.8,1.5-1.9,1.5-3.3v-7.4c0-1.3-0.5-2.4-1.4-3.2
		c-0.9-0.8-2.2-1.2-3.8-1.2h-27.6c-3.8,0-7.1-1.2-9.8-3.5s-4-5.1-4-8.4v-8.9c0-3.3,1.3-6.1,4-8.4c2.7-2.3,6-3.5,9.8-3.5L582.7,50.3
		L582.7,50.3z"/>
</g>
<g>
	<path class="st0" d="M89.1,151.4c0,0,0.1,0.1,0.1,0.2c0,3.4-1.1,5.9-3.3,7.5c-1.8,1.2-4.5,1.8-8.2,1.8H66.2c-2.2,0-4.2-0.1-5.8-0.4
		c-1.6-0.3-2.9-0.8-4-1.4c-0.9-0.6-1.7-1.4-2.4-2.4c-0.6-1-1.1-2.1-1.3-3.5c-0.3-1.7-0.5-5-0.5-9.9c0-5.8,1.1-9.7,3.2-11.7h-0.1
		c2.1-2,5.9-3,11.6-3h10.7c3.8,0,6.6,0.8,8.6,2.3c1.9,1.5,2.9,3.8,2.9,6.9v0.1c0,0.3-0.1,0.5-0.4,0.5h-3.2c-0.3,0-0.5-0.2-0.5-0.5
		v-0.1c0-3.4-2.5-5-7.4-5h-11c-1.9,0-3.4,0.1-4.6,0.4c-1.2,0.2-2.2,0.5-2.9,0.9c-1.3,0.8-2.1,2.2-2.5,4.3c-0.1,0.6-0.2,1.5-0.3,2.9
		c0,1.3-0.1,3-0.1,5.1c0,2.2,0.1,4.1,0.4,5.5c0.3,1.4,0.6,2.5,1.1,3.1c1.2,1.4,3.9,2,8,2h11.8c2.4,0,4.2-0.3,5.3-0.9
		c1.4-0.6,2.1-2,2.1-4.1v-0.2c0-0.3,0.2-0.5,0.5-0.5h3.2h0.1h0.1L89.1,151.4z"/>
	<path class="st0" d="M125.8,158.2c-1.6,1.8-3.8,2.7-6.5,2.7h-7.8c-6,0-9-3.6-9-10.8v-5.8c0-3.6,0.8-6.4,2.3-8.2
		c0.8-0.8,1.8-1.5,2.9-2s2.3-0.7,3.8-0.7h7.8c2.7,0,4.9,0.9,6.5,2.7c0.8,0.9,1.5,2.1,1.8,3.5c0.4,1.4,0.6,2.9,0.6,4.7v5.8
		C128.1,153.7,127.3,156.4,125.8,158.2z M124.5,144.2c0-4.4-1.8-6.7-5.5-6.7h-7.3c-3.7,0-5.5,2.2-5.5,6.7v5.8c0,4.5,1.8,6.7,5.5,6.7
		h7.3c3.7,0,5.5-2.2,5.5-6.7V144.2z"/>
	<path class="st0" d="M186.6,160.6c-0.3,0-0.5-0.1-0.5-0.4c0-0.5,0-1.3,0.1-2.3c0-1,0.1-2.1,0.2-3.5c0.1-1.4,0.1-2.5,0.2-3.5
		c0.1-1,0.1-1.8,0.1-2.4c0-3.5-0.5-6.2-1.4-8c-0.5-1-1.2-1.8-2-2.3c-0.9-0.5-1.9-0.7-3.2-0.7h-5.8c-2.7,0-4.6,1-5.7,3
		c-0.4,0.8-0.6,1.8-0.7,3.1c-0.1,1.3-0.1,2.8-0.1,4.8c0,3.7,0,6.6,0,8.5c0,2,0,3.1,0.1,3.4c0,0.3-0.2,0.4-0.5,0.4h-2.8
		c-0.3,0-0.5-0.1-0.5-0.4v-14.2c0-1.4,0-2.5-0.1-3.4s-0.4-1.7-0.9-2.3c-1-1.3-1.9-2.1-2.8-2.4c-0.5-0.2-0.9-0.3-1.3-0.4
		c-0.4-0.1-0.7-0.1-1-0.1h-6c-1.3,0-2.4,0.3-3.3,0.8c-0.9,0.5-1.6,1.3-2.1,2.4c-0.5,1-0.8,2.1-1,3.4c-0.2,1.3-0.3,2.9-0.3,4.7
		c0,0.7,0,1.5,0,2.5s0.1,2.1,0.1,3.4c0.1,1.3,0.1,2.5,0.2,3.4c0,0.9,0.1,1.7,0.1,2.2c0,0.3-0.1,0.4-0.4,0.4h-3.4
		c-0.2,0-0.3-0.1-0.3-0.4v-15.7c0-1.6,0.2-3.1,0.7-4.5s1.1-2.6,2-3.6s1.9-1.8,3.2-2.4c1.2-0.6,2.6-0.9,4.1-0.9h6.8
		c1,0,1.9,0.1,2.7,0.3s1.5,0.5,2.1,0.9c0,0,0,0.1,0.1,0.1c0.6,0.4,1.1,0.8,1.5,1.3c0.5,0.5,0.9,1.1,1.2,1.8c0.6-1.5,1.5-2.6,2.6-3.2
		c0.6-0.4,1.3-0.7,2.1-0.9s1.7-0.3,2.6-0.3h7.4c2.4,0,4.5,0.8,6.3,2.4c0.9,0.9,1.6,2.1,2.1,3.3c0.5,1.3,0.8,2.6,0.8,4.2v17.1
		c0,0.3-0.1,0.4-0.4,0.4L186.6,160.6L186.6,160.6z"/>
	<path class="st0" d="M226.5,158.1c-1.6,1.8-3.8,2.7-6.5,2.7h-7.6c-2.2,0-3.9-0.6-5.1-1.7v12c0,0.3-0.2,0.5-0.5,0.5H204
		c-0.2,0-0.4-0.2-0.4-0.5v-27.7c0.1-1.8,0.2-3.3,0.5-4.5s0.8-2.3,1.7-3.3c0.8-0.9,1.7-1.6,2.9-2s2.4-0.7,3.7-0.7h7.6
		c2.8,0,5,0.9,6.6,2.7c1.6,1.9,2.4,4.7,2.4,8.3v5.9C228.9,153.6,228.1,156.3,226.5,158.1z M225.2,144c0-4.5-1.8-6.7-5.4-6.7h-7.1
		c-1.9,0-3.3,0.6-4.2,1.7c-0.9,1.1-1.3,2.8-1.3,5v5.9c0,2.3,0.4,4,1.3,5.1c0.9,1.1,2.3,1.7,4.2,1.7h7.1c3.6,0,5.4-2.3,5.4-6.8V144z"
		/>
	<path class="st0" d="M266.5,143.4c0,0.3,0.1,0.7,0.1,1s0,0.6,0,0.9v4.6c-0.1,2.3-0.3,4.2-0.5,5.6c-0.2,1.4-0.6,2.6-1,3.4
		c-0.5,0.8-1.2,1.4-2.1,1.7s-2.1,0.4-3.5,0.4H247c-4.2,0-6.3-2.4-6.3-7.1v-2.5c0-1.6,0.1-2.9,0.4-3.9c0.3-1,0.8-1.8,1.5-2.4
		s1.7-1,3-1.2s2.8-0.4,4.7-0.4h12.1l-0.1-0.7c-0.1-1.7-0.5-3-1.2-3.8c0,0-0.1,0-0.2-0.1c-0.8-0.8-1.8-1.2-3-1.2h-8.3
		c-2.9,0-4.4,1.3-4.4,3.9c0,0.3-0.1,0.5-0.4,0.5h-2.9c-0.3,0-0.5-0.2-0.5-0.5V141c0-2.5,0.8-4.5,2.4-5.8c0.7-0.6,1.5-1,2.4-1.3
		s1.9-0.4,2.9-0.4h9.1c2.5,0,4.5,0.8,5.9,2.2c1.4,1.5,2.1,3.8,2.1,7.1L266.5,143.4z M262.5,149.4c0-0.7,0-1.2,0-1.5H248
		c-1.2,0-2,0.2-2.4,0.5c-0.9,0.4-1.3,1.3-1.3,2.8v2c0,2.3,1.3,3.4,3.8,3.4h10.4c2.6,0,3.9-1.5,3.9-4.5
		C262.5,151.1,262.5,150.1,262.5,149.4z"/>
	<path class="st0" d="M302.1,160.9c-0.3,0-0.4-0.2-0.4-0.5v-16c0-2.1-0.5-3.8-1.5-5s-2.2-1.8-3.8-1.8H289c-1.5,0-2.7,0.6-3.8,1.8
		c-1,1.2-1.5,2.9-1.5,5v16c0,0.3-0.2,0.5-0.5,0.5h-2.8c-0.3,0-0.4-0.2-0.4-0.5v-15.5c0-3.7,0.8-6.5,2.4-8.5s3.8-3,6.7-3h7.5
		c2.8,0,5,1,6.6,3s2.4,4.9,2.4,8.6v15.4c0,0.3-0.2,0.5-0.5,0.5H302.1z"/>
	<path class="st0" d="M333.2,160.6c-3.1,7.8-6.9,11.7-11.3,11.7c-0.3,0-0.5-0.2-0.5-0.5v-4c0-0.3,0.2-0.5,0.5-0.5
		c1.4,0,2.7-0.7,3.9-2.2c0.5-0.7,1.1-1.4,1.6-2.2s0.9-1.6,1.2-2.6l-10.4-26.6v-0.2c0-0.3,0.1-0.5,0.4-0.5h3.2c0.2,0,0.4,0.2,0.6,0.7
		l8.4,21.8l8.5-21.8c0.3-0.5,0.5-0.7,0.6-0.7h3.2c0.3,0,0.4,0.2,0.4,0.5v0.2L333.2,160.6z"/>
	<path class="st0" d="M399.5,142.7c-0.3,0-0.4-0.2-0.4-0.5c0-1-0.1-1.8-0.2-2.5s-0.3-1.1-0.5-1.4c-0.5-0.5-1.6-0.8-3-0.8h-10.8
		c-1.2,0-2,0.3-2.4,0.9c-0.4,0.6-0.7,1.7-0.7,3.4c0,0.4,0,0.8,0.1,1s0.2,0.4,0.4,0.5c0.2,0.1,0.5,0.2,0.8,0.2s0.8,0,1.3,0.1
		c0.2,0,0.3,0,0.5,0.1c0,0.1,0.5,0.1,1.4,0.1s2.3,0.1,4,0.1c0.5,0,1.1,0.1,1.6,0.1s1.1,0,1.7,0.1c1.5,0,2.7,0.2,3.7,0.6
		c1,0.4,1.9,0.9,2.6,1.5c1,0.8,1.7,1.8,2.2,3.2c0.5,1.3,0.7,2.9,0.7,4.8c0,4.6-2.4,6.9-7.3,6.9h-10.7c-1.2,0-2.3-0.2-3.2-0.5
		c-0.9-0.3-1.7-0.8-2.2-1.5c-0.9-1.3-1.4-3.6-1.4-6.9c0-0.3,0.1-0.5,0.4-0.5h2.8c0.3,0,0.5,0.2,0.5,0.5c0,2,0.2,3.3,0.7,3.9
		c0.2,0.3,0.5,0.6,1,0.7c0.5,0.1,1.1,0.2,1.8,0.2h10.4c1.3,0,2.3-0.3,2.9-0.9c0.6-0.6,0.9-1.7,0.9-3.4c0-1-0.3-1.8-1-2.4
		c-0.7-0.6-1.5-1-2.6-1.3s-2.2-0.5-3.5-0.6s-2.5-0.1-3.7-0.1h-1.7c-1.1,0-2.2,0-3.2-0.1s-1.9-0.3-2.7-0.6c-1.1-0.4-1.8-1.2-2.2-2.5
		c-0.4-1.3-0.5-2.8-0.5-4.5c0-2.3,0.7-4.2,2.2-5.6c1.4-1,3-1.5,4.8-1.5h10.1c2.7,0,4.7,0.6,5.8,1.8c1.3,1.5,1.9,3.8,1.9,7.1
		c0,0.3-0.1,0.5-0.4,0.5h-2.9L399.5,142.7L399.5,142.7z"/>
	<path class="st0" d="M416.6,160.9c-0.3,0-0.5-0.2-0.5-0.5v-37.7c0-0.3,0.2-0.5,0.5-0.5h2.1c0.2,0,0.4,0.2,0.4,0.5v37.7
		c0,0.3-0.1,0.5-0.4,0.5H416.6z"/>
	<path class="st0" d="M455.8,158.2c-1.6,1.8-3.8,2.7-6.5,2.7h-7.8c-6,0-9-3.6-9-10.8v-5.8c0-3.6,0.8-6.4,2.3-8.2
		c0.8-0.8,1.8-1.5,2.9-2s2.3-0.7,3.8-0.7h7.8c2.7,0,4.9,0.9,6.5,2.7c0.8,0.9,1.5,2.1,1.8,3.5c0.4,1.4,0.6,2.9,0.6,4.7v5.8
		C458.2,153.7,457.4,156.4,455.8,158.2z M454.5,144.2c0-4.4-1.8-6.7-5.5-6.7h-7.3c-3.7,0-5.5,2.2-5.5,6.7v5.8c0,4.5,1.8,6.7,5.5,6.7
		h7.3c3.7,0,5.5-2.2,5.5-6.7V144.2z"/>
	<path class="st0" d="M496.1,167.1c-0.4,1.3-1,2.4-1.9,3.1c-1.5,1.3-3.6,2-6.3,2h-7.8c-2.1,0-3.8-0.5-5.3-1.6
		c-0.9-0.7-1.5-1.5-2-2.5s-0.7-2.1-0.7-3.4c0-0.3,0.2-0.5,0.5-0.5h3.1c0.3,0,0.4,0.2,0.4,0.5c0,1.3,0.5,2.2,1.5,2.7h-0.1
		c0.4,0.2,0.8,0.4,1.3,0.5s1,0.2,1.6,0.2h7.3c3.5,0,5.2-1.9,5.2-5.8V159c-1,1.2-2.7,1.8-5,1.8h-8c-5.8,0-8.7-3.5-8.7-10.4v-6.3
		c0-7.4,2.8-11.1,8.4-11.1h8.2c1.2,0,2.3,0.2,3.3,0.5s2,0.8,2.7,1.6c0.8,0.7,1.4,1.7,1.9,2.9s0.8,2.6,0.8,4.4v20
		C496.7,164.2,496.5,165.8,496.1,167.1z M493.1,144.8c0-5-1.9-7.5-5.7-7.5h-6.5c-2.1,0-3.5,0.5-4.4,1.4c-0.5,0.6-0.9,1.3-1.1,2.3
		c-0.3,1-0.4,2.1-0.4,3.5v5.4c0,4.5,2,6.8,5.9,6.8h6.5c1.7,0,3.1-0.6,4.1-1.7c1-1.1,1.6-2.8,1.6-5.1V144.8z"/>
	<path class="st0" d="M535.7,143.4c0,0.3,0.1,0.7,0.1,1s0,0.6,0,0.9v4.6c-0.1,2.3-0.3,4.2-0.5,5.6c-0.2,1.4-0.5,2.6-1,3.4
		c-0.5,0.8-1.2,1.4-2.1,1.7c-0.9,0.3-2.1,0.4-3.5,0.4h-12.4c-4.2,0-6.3-2.4-6.3-7.1v-2.5c0-1.6,0.1-2.9,0.4-3.9s0.8-1.8,1.5-2.4
		c0.7-0.6,1.7-1,3-1.2c1.3-0.2,2.8-0.4,4.7-0.4h12.1l-0.1-0.7c-0.1-1.7-0.5-3-1.2-3.8c0,0-0.1,0-0.2-0.1c-0.8-0.8-1.8-1.2-3-1.2
		h-8.3c-2.9,0-4.4,1.3-4.4,3.9c0,0.3-0.1,0.5-0.4,0.5h-2.9c-0.3,0-0.5-0.2-0.5-0.5V141c0-2.5,0.8-4.5,2.4-5.8c0.7-0.6,1.5-1,2.4-1.3
		s1.9-0.4,2.9-0.4h9.1c2.5,0,4.5,0.8,5.9,2.2c1.4,1.5,2.1,3.8,2.1,7.1L535.7,143.4z M531.8,149.4c0-0.7,0-1.2,0-1.5h-14.5
		c-1.2,0-2,0.2-2.4,0.5c-0.9,0.4-1.3,1.3-1.3,2.8v2c0,2.3,1.3,3.4,3.8,3.4h10.4c2.6,0,3.9-1.5,3.9-4.5
		C531.7,151.1,531.8,150.1,531.8,149.4z"/>
	<path class="st0" d="M571.4,160.9c-0.3,0-0.4-0.2-0.4-0.5v-16c0-2.1-0.5-3.8-1.5-5s-2.2-1.8-3.8-1.8h-7.5c-1.5,0-2.7,0.6-3.8,1.8
		c-1,1.2-1.5,2.9-1.5,5v16c0,0.3-0.2,0.5-0.5,0.5h-2.8c-0.3,0-0.4-0.2-0.4-0.5v-15.5c0-3.7,0.8-6.5,2.4-8.5c1.6-2,3.8-3,6.7-3h7.5
		c2.8,0,5,1,6.6,3s2.4,4.9,2.4,8.6v15.4c0,0.3-0.2,0.5-0.5,0.5H571.4z"/>
</g>
</svg>
