<?xml version="1.0" encoding="utf-8"?>
<!-- Generator: Adobe Illustrator 22.0.1, SVG Export Plug-In . SVG Version: 6.00 Build 0)  -->
<svg version="1.1" id="Layer_1" xmlns="http://www.w3.org/2000/svg" xmlns:xlink="http://www.w3.org/1999/xlink" x="0px" y="0px"
	 viewBox="0 0 520.7 158.2" style="enable-background:new 0 0 520.7 158.2;" xml:space="preserve">
<style type="text/css">
	.st0{fill:#9A999A;}
</style>
<path class="st0" d="M84.7,71.2c0,2.9-0.3,5.3-0.9,7.3s-1.6,3.6-3,4.8c-1.4,1.2-3.2,2.1-5.5,2.7s-5,0.8-8.2,0.8H28.7l0.7-10.7h36.9
	c1.4,0,2.6-0.1,3.6-0.3c1-0.2,1.7-0.5,2.3-1c0.6-0.5,0.9-1.1,1.2-1.8c0.2-0.8,0.4-1.7,0.4-2.9c0-2.2-0.5-3.8-1.5-4.7
	c-1-0.9-2.9-1.3-5.7-1.3h-22c-3.3,0-6-0.3-8.2-0.9s-3.9-1.5-5.3-2.7c-1.3-1.2-2.3-2.7-2.9-4.6c-0.6-1.8-0.9-4-0.9-6.5v-1.8
	c0-2.7,0.3-5,0.9-6.9s1.6-3.5,2.9-4.7c1.4-1.2,3.2-2.1,5.4-2.7s5-0.9,8.3-0.9h38c-0.2,1.8-0.4,3.6-0.6,5.4c-0.2,1.7-0.4,3.5-0.7,5.4
	H44.9c-2.6,0-4.4,0.4-5.3,1.3c-0.9,0.9-1.4,2.4-1.4,4.6s0.5,3.7,1.4,4.6s2.7,1.4,5.3,1.4h21.7c3.4,0,6.2,0.3,8.5,0.8
	c2.3,0.6,4.2,1.4,5.6,2.6s2.4,2.6,3.1,4.4c0.6,1.8,0.9,3.8,0.9,6.2C84.7,69.1,84.7,71.2,84.7,71.2z"/>
<path class="st0" d="M94.7,86.9V32.6h10.6v43.5h40.8v10.7L94.7,86.9L94.7,86.9z"/>
<path class="st0" d="M170.6,86.9c-3,0-5.5-0.3-7.6-0.9s-3.8-1.6-5-3c-1.3-1.4-2.2-3.2-2.8-5.3c-0.6-2.2-0.9-4.8-0.9-7.9V32.7h10.6
	v37c0,2.4,0.4,4,1.3,5c0.9,1,2.4,1.5,4.5,1.5h26.5c2.1,0,3.6-0.5,4.5-1.5s1.3-2.7,1.3-5v-37h10.6v37.1c0,3.1-0.3,5.7-0.9,7.9
	c-0.6,2.2-1.5,3.9-2.8,5.3s-3,2.4-5.1,3s-4.6,0.9-7.6,0.9H170.6z"/>
<path class="st0" d="M268,86.9V43.4h-19.8V32.7h50.2v10.7h-19.8v43.5H268z"/>
<path class="st0" d="M306.8,86.9V32.6h52v10.7h-41.5v12h40.3v8.8h-40.3v12.1h41.5v10.7L306.8,86.9L306.8,86.9z"/>
<path class="st0" d="M386.1,86.9c-3.3,0-6-0.3-8.1-0.9c-2.2-0.6-3.9-1.5-5.2-2.9c-1.3-1.3-2.2-3.1-2.8-5.4c-0.6-2.3-0.8-5.1-0.8-8.4
	V50.2c0-3.4,0.3-6.2,0.8-8.4c0.6-2.3,1.5-4.1,2.8-5.4c1.3-1.4,3-2.3,5.2-2.9s4.9-0.8,8.1-0.8h30.4c2,0,3.7,0.3,5.2,0.8
	c1.5,0.6,2.8,1.2,3.8,2s1.9,1.7,2.5,2.6s1.1,1.7,1.4,2.5l-6.8,6.9c-0.5-1-1.2-2-2.3-2.9c-1.1-0.9-2.6-1.3-4.7-1.3H386
	c-2.4,0-4,0.5-5,1.5c-0.9,1-1.4,2.8-1.4,5.3v19.1c0,1.2,0.1,2.2,0.2,3c0.2,0.8,0.5,1.5,0.9,2.1s1.1,1,1.9,1.3s1.9,0.4,3.3,0.4h30
	c2.1,0,3.7-0.4,4.7-1.3s1.7-1.8,2.2-2.9l6.8,6.9c-0.3,0.7-0.8,1.6-1.4,2.5s-1.5,1.8-2.5,2.6c-1.1,0.8-2.3,1.5-3.8,2.1
	s-3.2,0.8-5.2,0.8h-30.6V86.9z"/>
<path class="st0" d="M482.7,86.9V64.5h-32.2v22.4h-10.6V32.6h10.6v22.1h32.2V32.6h10.6v54.3H482.7z"/>
<path class="st0" d="M69.8,127.5c-1.1,0-1.9-0.1-2.6-0.3c-0.7-0.2-1.3-0.5-1.7-0.9c-0.4-0.4-0.7-1-0.9-1.8c-0.2-0.7-0.3-1.7-0.3-2.7
	v-6.2c0-1.1,0.1-2,0.3-2.7c0.2-0.7,0.5-1.3,0.9-1.8c0.4-0.4,1-0.8,1.7-0.9c0.7-0.2,1.6-0.3,2.6-0.3h9.9c0.6,0,1.2,0.1,1.7,0.3
	c0.5,0.2,0.9,0.4,1.2,0.7c0.3,0.3,0.6,0.5,0.8,0.8c0.2,0.3,0.4,0.6,0.5,0.8l-2.2,2.3c-0.2-0.3-0.4-0.7-0.7-0.9
	c-0.3-0.3-0.8-0.4-1.5-0.4h-9.6c-0.8,0-1.3,0.2-1.6,0.5c-0.3,0.3-0.5,0.9-0.5,1.7v6.2c0,0.4,0,0.7,0.1,1s0.1,0.5,0.3,0.7
	c0.1,0.2,0.4,0.3,0.6,0.4c0.3,0.1,0.6,0.1,1.1,0.1h9.8c0.7,0,1.2-0.1,1.5-0.4s0.6-0.6,0.7-0.9l2.2,2.2c-0.1,0.2-0.3,0.5-0.5,0.8
	s-0.5,0.6-0.8,0.9s-0.8,0.5-1.2,0.7c-0.5,0.2-1.1,0.3-1.7,0.3H69.8V127.5z"/>
<path class="st0" d="M92.7,127.5c-1.1,0-2-0.1-2.7-0.3c-0.7-0.2-1.3-0.5-1.7-0.9c-0.4-0.4-0.7-1-0.9-1.8c-0.2-0.7-0.3-1.6-0.3-2.7
	v-6.2c0-1.1,0.1-2,0.3-2.7c0.2-0.7,0.5-1.3,0.9-1.8c0.4-0.4,1-0.8,1.7-1s1.6-0.3,2.7-0.3h9.3c1,0,1.9,0.1,2.6,0.3
	c0.7,0.2,1.3,0.5,1.7,1c0.4,0.4,0.7,1,0.9,1.8c0.2,0.7,0.3,1.6,0.3,2.7v6.2c0,1.1-0.1,2-0.3,2.7c-0.2,0.7-0.5,1.3-0.9,1.8
	c-0.4,0.4-1,0.8-1.7,0.9c-0.7,0.2-1.6,0.3-2.6,0.3H92.7z M104.1,115.6c0-0.9-0.2-1.5-0.5-1.8s-0.8-0.5-1.6-0.5h-9.3
	c-0.8,0-1.3,0.2-1.6,0.5c-0.3,0.3-0.5,0.9-0.5,1.8v6.2c0,0.9,0.2,1.5,0.4,1.8c0.3,0.3,0.8,0.5,1.6,0.5h9.3c0.8,0,1.3-0.2,1.6-0.5
	c0.3-0.3,0.4-0.9,0.4-1.8v-6.2H104.1z"/>
<path class="st0" d="M128.8,127.5V116l-5.6,11.5H120l-5.6-11.5v11.5h-3.2v-17.6h3.8l6.6,14.1l6.6-14.1h3.7v17.6H128.8z"/>
<path class="st0" d="M139.1,121.8v5.7h-3.4v-17.6h13.2c1,0,1.9,0.1,2.5,0.3c0.7,0.2,1.2,0.5,1.6,0.9c0.4,0.4,0.7,1,0.9,1.6
	c0.2,0.7,0.3,1.5,0.3,2.6v1.6c0,0.9-0.1,1.7-0.3,2.3c-0.2,0.6-0.5,1.1-0.9,1.5s-1,0.7-1.6,0.9c-0.7,0.2-1.5,0.3-2.5,0.3L139.1,121.8
	L139.1,121.8z M150.8,115.2c0-0.7-0.1-1.2-0.4-1.5c-0.3-0.3-0.8-0.4-1.5-0.4h-9.8v5.3h9.8c0.7,0,1.2-0.1,1.5-0.4s0.4-0.7,0.4-1.4
	V115.2z"/>
<path class="st0" d="M172.8,127.5l-2.2-4.1H160l-2.2,4.1h-4l9.7-17.6h3.6l9.7,17.6H172.8z M165.3,113.3l-4,7.3h8L165.3,113.3z"/>
<path class="st0" d="M194.9,127.5l-12.4-13v13h-3.3v-17.6h3.7l12.1,12.8v-12.8h3.3v17.6H194.9z"/>
<path class="st0" d="M209,127.5V121l-8.3-11.2h4l6.1,8.3l6.1-8.3h4l-8.5,11.2v6.5H209z"/>
<path class="st0" d="M250.2,122.4c0,0.9-0.1,1.7-0.3,2.4c-0.2,0.6-0.5,1.2-1,1.6s-1,0.7-1.8,0.9c-0.7,0.2-1.6,0.3-2.7,0.3h-12.5
	l0.2-3.5h12c0.5,0,0.9,0,1.2-0.1s0.6-0.2,0.7-0.3c0.2-0.2,0.3-0.4,0.4-0.6c0.1-0.2,0.1-0.6,0.1-0.9c0-0.7-0.2-1.2-0.5-1.5
	s-0.9-0.4-1.8-0.4H237c-1.1,0-1.9-0.1-2.7-0.3c-0.7-0.2-1.3-0.5-1.7-0.9s-0.7-0.9-0.9-1.5s-0.3-1.3-0.3-2.1v-0.6
	c0-0.9,0.1-1.6,0.3-2.3c0.2-0.6,0.5-1.1,1-1.5c0.4-0.4,1-0.7,1.8-0.9c0.7-0.2,1.6-0.3,2.7-0.3h12.4c-0.1,0.6-0.1,1.2-0.2,1.7
	c-0.1,0.6-0.1,1.2-0.2,1.7h-11.9c-0.9,0-1.4,0.1-1.7,0.4s-0.4,0.8-0.4,1.5s0.2,1.2,0.4,1.5c0.3,0.3,0.9,0.4,1.7,0.4h7.1
	c1.1,0,2,0.1,2.8,0.3c0.8,0.2,1.4,0.5,1.8,0.8c0.5,0.4,0.8,0.8,1,1.4s0.3,1.2,0.3,2v0.8H250.2z"/>
<path class="st0" d="M253.4,127.5v-17.6h3.4V124h13.3v3.5H253.4z"/>
<path class="st0" d="M278.3,127.5c-1.1,0-2-0.1-2.7-0.3c-0.7-0.2-1.3-0.5-1.7-0.9c-0.4-0.4-0.7-1-0.9-1.8c-0.2-0.7-0.3-1.6-0.3-2.7
	v-6.2c0-1.1,0.1-2,0.3-2.7c0.2-0.7,0.5-1.3,0.9-1.8c0.4-0.4,1-0.8,1.7-1s1.6-0.3,2.7-0.3h9.3c1,0,1.9,0.1,2.6,0.3
	c0.7,0.2,1.3,0.5,1.7,1c0.4,0.4,0.7,1,0.9,1.8c0.2,0.7,0.3,1.6,0.3,2.7v6.2c0,1.1-0.1,2-0.3,2.7c-0.2,0.7-0.5,1.3-0.9,1.8
	c-0.4,0.4-1,0.8-1.7,0.9c-0.7,0.2-1.6,0.3-2.6,0.3H278.3z M289.7,115.6c0-0.9-0.2-1.5-0.5-1.8s-0.8-0.5-1.6-0.5h-9.3
	c-0.8,0-1.3,0.2-1.6,0.5c-0.3,0.3-0.5,0.9-0.5,1.8v6.2c0,0.9,0.1,1.5,0.4,1.8s0.8,0.5,1.6,0.5h9.3c0.8,0,1.3-0.2,1.6-0.5
	c0.3-0.3,0.4-0.9,0.4-1.8v-6.2H289.7z"/>
<path class="st0" d="M313.2,127.5l-0.1-2.2c-0.1,0.3-0.2,0.5-0.3,0.8c-0.2,0.3-0.4,0.5-0.7,0.7c-0.3,0.2-0.6,0.4-1,0.5
	s-0.8,0.2-1.3,0.2h-7.5c-1.1,0-2-0.1-2.7-0.3c-0.7-0.2-1.3-0.5-1.7-0.9c-0.4-0.4-0.7-1-0.9-1.8c-0.2-0.7-0.2-1.6-0.2-2.8v-6.2
	c0-1.1,0.1-2,0.2-2.7c0.2-0.7,0.5-1.3,0.9-1.8s1-0.8,1.7-1s1.6-0.3,2.7-0.3h9c0.6,0,1.2,0.1,1.7,0.3c0.5,0.2,0.9,0.4,1.2,0.7
	c0.3,0.3,0.6,0.5,0.8,0.8c0.2,0.3,0.4,0.6,0.5,0.8l-2.2,2.3c-0.2-0.3-0.4-0.7-0.7-0.9c-0.3-0.3-0.8-0.4-1.5-0.4h-8.7
	c-0.8,0-1.3,0.2-1.6,0.5c-0.3,0.3-0.4,0.9-0.4,1.8v5.7c0,0.6,0,1.1,0.1,1.5s0.2,0.6,0.3,0.8c0.2,0.2,0.4,0.3,0.6,0.4
	c0.3,0.1,0.6,0.1,1,0.1h8c1,0,1.7-0.1,2-0.4c0.4-0.3,0.6-0.7,0.6-1.2v-2.2h-6.6v-2.9h9.9v10.3h-3.1V127.5z"/>
<path class="st0" d="M337.5,127.5l-2.2-4.1h-10.6l-2.2,4.1h-3.9l9.7-17.6h3.6l9.7,17.6H337.5z M330,113.3l-4,7.3h8L330,113.3z"/>
<path class="st0" d="M359.7,127.5l-12.4-13v13H344v-17.6h3.7l12.1,12.8v-12.8h3.3v17.6H359.7z"/>
<path class="st0" d="M389.2,127.5v-7.3h-10.5v7.3h-3.4v-17.6h3.4v7.2h10.5v-7.2h3.4v17.6H389.2z"/>
<path class="st0" d="M396.4,127.5v-17.6h16.9v3.5h-13.5v3.9h13.1v2.8h-13.1v3.9h13.5v3.5L396.4,127.5L396.4,127.5z"/>
<path class="st0" d="M431.8,127.5l-6.1-5.8h-5.6v5.8h-3.5v-17.6H431c0.9,0,1.7,0.1,2.4,0.3c0.6,0.2,1.2,0.5,1.6,0.9s0.7,1,0.9,1.7
	c0.2,0.7,0.3,1.5,0.3,2.5v1.1c0,1.1-0.1,2-0.3,2.6c-0.2,0.7-0.6,1.2-1,1.6c-0.5,0.4-1.1,0.7-1.8,0.8c-0.8,0.1-1.7,0.2-2.8,0.2
	l6.5,5.8h-5V127.5z M432.7,115.9c0-0.9-0.1-1.5-0.3-1.9c-0.2-0.4-0.7-0.6-1.4-0.6h-10.8v5.5H431c0.6,0,1.1-0.2,1.3-0.5
	c0.3-0.3,0.4-0.8,0.4-1.6L432.7,115.9L432.7,115.9z"/>
<path class="st0" d="M439.4,127.5v-17.6h16.9v3.5h-13.5v3.9H456v2.8h-13.1v3.9h13.5v3.5L439.4,127.5L439.4,127.5z"/>
</svg>
