<?xml version="1.0" encoding="utf-8"?>
<!-- Generator: Adobe Illustrator 22.0.1, SVG Export Plug-In . SVG Version: 6.00 Build 0)  -->
<svg version="1.1" id="Layer_1" xmlns="http://www.w3.org/2000/svg" xmlns:xlink="http://www.w3.org/1999/xlink" x="0px" y="0px"
	 viewBox="0 0 468.1 183.3" style="enable-background:new 0 0 468.1 183.3;" xml:space="preserve">
<style type="text/css">
	.st0{fill:#9A999A;}
	.st1{opacity:0.4;}
	.st2{opacity:0;fill:#9A999A;}
	.st3{opacity:2.439024e-02;fill:#9A999A;}
	.st4{opacity:4.878049e-02;fill:#9A999A;}
	.st5{opacity:7.317073e-02;fill:#9A999A;}
	.st6{opacity:9.756097e-02;fill:#9A999A;}
	.st7{opacity:0.122;fill:#9A999A;}
	.st8{opacity:0.1463;fill:#9A999A;}
	.st9{opacity:0.1707;fill:#9A999A;}
	.st10{opacity:0.1951;fill:#9A999A;}
	.st11{opacity:0.2195;fill:#9A999A;}
	.st12{opacity:0.2439;fill:#9A999A;}
	.st13{opacity:0.2683;fill:#9A999A;}
	.st14{opacity:0.2927;fill:#9A999A;}
	.st15{opacity:0.3171;fill:#9A999A;}
	.st16{opacity:0.3415;fill:#9A999A;}
	.st17{opacity:0.3659;fill:#9A999A;}
	.st18{opacity:0.3902;fill:#9A999A;}
	.st19{opacity:0.4146;fill:#9A999A;}
	.st20{opacity:0.439;fill:#9A999A;}
	.st21{opacity:0.4634;fill:#9A999A;}
	.st22{opacity:0.4878;fill:#9A999A;}
	.st23{opacity:0.5122;fill:#9A999A;}
	.st24{opacity:0.5366;fill:#9A999A;}
	.st25{opacity:0.561;fill:#9A999A;}
	.st26{opacity:0.5854;fill:#9A999A;}
	.st27{opacity:0.6098;fill:#9A999A;}
	.st28{opacity:0.6341;fill:#9A999A;}
	.st29{opacity:0.6585;fill:#9A999A;}
	.st30{opacity:0.6829;fill:#9A999A;}
	.st31{opacity:0.7073;fill:#9A999A;}
	.st32{opacity:0.7317;fill:#9A999A;}
	.st33{opacity:0.7561;fill:#9A999A;}
	.st34{opacity:0.7805;fill:#9A999A;}
	.st35{opacity:0.8049;fill:#9A999A;}
	.st36{opacity:0.8293;fill:#9A999A;}
	.st37{opacity:0.8537;fill:#9A999A;}
	.st38{opacity:0.878;fill:#9A999A;}
	.st39{opacity:0.9024;fill:#9A999A;}
	.st40{opacity:0.9268;fill:#9A999A;}
	.st41{opacity:0.9512;fill:#9A999A;}
	.st42{opacity:0.9756;fill:#9A999A;}
</style>
<g>
	<g>
		<path class="st0" d="M234.8,94.9c0,2.9-0.3,5.4-1,7.4c-0.6,2-1.7,3.7-3.1,4.9c-1.4,1.2-3.3,2.2-5.5,2.7c-2.3,0.6-5.1,0.8-8.3,0.8
			h-38.8l0.7-10.8h37.3c1.4,0,2.6-0.1,3.6-0.3c1-0.2,1.8-0.5,2.3-1c0.6-0.5,1-1.1,1.2-1.9c0.2-0.8,0.4-1.7,0.4-2.9
			c0-2.3-0.5-3.8-1.5-4.7c-1-0.9-2.9-1.3-5.7-1.3h-22.2c-3.3,0-6-0.3-8.3-0.9c-2.2-0.6-4-1.5-5.3-2.7c-1.4-1.2-2.3-2.8-2.9-4.6
			c-0.6-1.9-0.9-4-0.9-6.5v-1.8c0-2.7,0.3-5,0.9-7c0.6-2,1.6-3.6,3-4.8c1.4-1.2,3.2-2.1,5.5-2.7c2.3-0.6,5.1-0.9,8.4-0.9h38.4
			c-0.2,1.8-0.4,3.7-0.6,5.4c-0.2,1.8-0.5,3.6-0.7,5.4h-37.1c-2.7,0-4.5,0.5-5.4,1.4c-0.9,0.9-1.4,2.4-1.4,4.6
			c0,2.2,0.5,3.7,1.4,4.7c0.9,0.9,2.7,1.4,5.4,1.4h21.9c3.4,0,6.3,0.3,8.6,0.8c2.3,0.6,4.2,1.4,5.7,2.6c1.4,1.2,2.5,2.6,3.1,4.4
			c0.6,1.8,1,3.9,1,6.3V94.9z"/>
		<path class="st0" d="M294.3,110.8L287.5,98h-33.1l-6.9,12.8h-12.3l30.1-54.9h11.2l30.1,54.9H294.3z M271,66.7l-12.4,22.7h24.9
			L271,66.7z"/>
		<path class="st0" d="M359.1,110.8l-38.7-40.4v40.4h-10.3V55.9h11.6l37.6,39.7V55.9h10.4v54.9H359.1z"/>
		<path class="st0" d="M394.1,110.8v-44h-20V55.9h50.7v10.8h-20v44H394.1z"/>
		<path class="st0" d="M429.7,110.8V55.9h10.7v54.9H429.7z"/>
	</g>
	<g>
		<path class="st0" d="M191.4,120.9v1.7h-5.7v12.2h-1.9v-12.2h-5.7v-1.7H191.4z"/>
		<path class="st0" d="M197,120.9v5.8h9.5v-5.8h1.9v13.9h-1.9v-6.3H197v6.3h-1.9v-13.9H197z"/>
		<path class="st0" d="M212.2,120.9h1.9v13.9h-1.9V120.9z"/>
		<path class="st0" d="M230.6,120.9v1.7h-9.2c-0.5,0-0.9,0.2-1.2,0.5c-0.3,0.3-0.5,0.7-0.5,1.2v0.7c0,0.5,0.2,0.9,0.5,1.2
			c0.3,0.3,0.7,0.5,1.2,0.5h7c0.9,0,1.6,0.3,2.2,0.9c0.6,0.6,0.9,1.3,0.9,2.2v1.9c0,0.9-0.3,1.6-0.9,2.2c-0.6,0.6-1.4,0.9-2.2,0.9
			h-10.1v-1.7h9.6c0.5,0,0.9-0.2,1.2-0.5c0.3-0.3,0.5-0.7,0.5-1.2v-1.2c0-0.5-0.2-0.9-0.5-1.2c-0.3-0.3-0.7-0.5-1.2-0.5h-7
			c-0.9,0-1.6-0.3-2.2-0.9c-0.6-0.6-0.9-1.3-0.9-2.2V124c0-0.9,0.3-1.6,0.9-2.2c0.6-0.6,1.4-0.9,2.2-0.9H230.6z"/>
		<path class="st0" d="M243.4,120.9h1.9v13.9h-1.9V120.9z"/>
		<path class="st0" d="M261.9,120.9v1.7h-9.2c-0.5,0-0.9,0.2-1.2,0.5c-0.3,0.3-0.5,0.7-0.5,1.2v0.7c0,0.5,0.2,0.9,0.5,1.2
			c0.3,0.3,0.7,0.5,1.2,0.5h7c0.9,0,1.6,0.3,2.2,0.9c0.6,0.6,0.9,1.3,0.9,2.2v1.9c0,0.9-0.3,1.6-0.9,2.2c-0.6,0.6-1.4,0.9-2.2,0.9
			h-10.1v-1.7h9.6c0.5,0,0.9-0.2,1.2-0.5c0.3-0.3,0.5-0.7,0.5-1.2v-1.2c0-0.5-0.2-0.9-0.5-1.2c-0.3-0.3-0.7-0.5-1.2-0.5h-7
			c-0.9,0-1.6-0.3-2.2-0.9c-0.6-0.6-0.9-1.3-0.9-2.2V124c0-0.9,0.3-1.6,0.9-2.2c0.6-0.6,1.4-0.9,2.2-0.9H261.9z"/>
		<path class="st0" d="M276.8,120.9l5,6.1l5-6.1h2.6l-6.7,7.9v6h-1.9v-6l-6.7-7.9H276.8z"/>
		<path class="st0" d="M303.4,120.9c0.9,0,1.6,0.3,2.2,0.9c0.6,0.6,0.9,1.4,0.9,2.2v7.6c0,0.9-0.3,1.6-0.9,2.2
			c-0.6,0.6-1.4,0.9-2.2,0.9H295c-0.9,0-1.6-0.3-2.2-0.9c-0.6-0.6-0.9-1.4-0.9-2.2v-7.6c0-0.9,0.3-1.6,0.9-2.2
			c0.6-0.6,1.4-0.9,2.2-0.9H303.4z M294.3,123.1c-0.3,0.3-0.5,0.7-0.5,1.2v7.1c0,0.5,0.2,0.9,0.5,1.2c0.3,0.3,0.7,0.5,1.2,0.5h7.5
			c0.5,0,0.9-0.2,1.2-0.5c0.3-0.3,0.5-0.7,0.5-1.2v-7.1c0-0.5-0.2-0.9-0.5-1.2c-0.3-0.3-0.7-0.5-1.2-0.5h-7.5
			C295,122.6,294.6,122.8,294.3,123.1z"/>
		<path class="st0" d="M312,120.9v10.5c0,0.5,0.2,0.9,0.5,1.2c0.3,0.3,0.7,0.5,1.2,0.5h7.2c0.5,0,0.9-0.2,1.2-0.5
			c0.3-0.3,0.5-0.7,0.5-1.2v-10.5h1.9v10.8c0,0.9-0.3,1.6-0.9,2.2c-0.6,0.6-1.4,0.9-2.2,0.9h-8.1c-0.9,0-1.6-0.3-2.2-0.9
			c-0.6-0.6-0.9-1.4-0.9-2.2v-10.8H312z"/>
		<path class="st0" d="M348.9,120.9v1.7h-9.2c-0.5,0-0.9,0.2-1.2,0.5c-0.3,0.3-0.5,0.7-0.5,1.2v0.7c0,0.5,0.2,0.9,0.5,1.2
			c0.3,0.3,0.7,0.5,1.2,0.5h7c0.9,0,1.6,0.3,2.2,0.9c0.6,0.6,0.9,1.3,0.9,2.2v1.9c0,0.9-0.3,1.6-0.9,2.2c-0.6,0.6-1.4,0.9-2.2,0.9
			h-10.1v-1.7h9.6c0.5,0,0.9-0.2,1.2-0.5c0.3-0.3,0.5-0.7,0.5-1.2v-1.2c0-0.5-0.2-0.9-0.5-1.2c-0.3-0.3-0.7-0.5-1.2-0.5h-7
			c-0.9,0-1.6-0.3-2.2-0.9c-0.6-0.6-0.9-1.3-0.9-2.2V124c0-0.9,0.3-1.6,0.9-2.2c0.6-0.6,1.4-0.9,2.2-0.9H348.9z"/>
		<path class="st0" d="M356.5,134.8c-0.9,0-1.6-0.3-2.2-0.9c-0.6-0.6-0.9-1.4-0.9-2.2v-10.8h1.9v10.5c0,0.5,0.2,0.9,0.5,1.2
			c0.3,0.3,0.7,0.5,1.2,0.5h9.7v1.7H356.5z"/>
		<path class="st0" d="M381.7,120.9c0.9,0,1.6,0.3,2.2,0.9c0.6,0.6,0.9,1.4,0.9,2.2v7.6c0,0.9-0.3,1.6-0.9,2.2
			c-0.6,0.6-1.4,0.9-2.2,0.9h-8.4c-0.9,0-1.6-0.3-2.2-0.9c-0.6-0.6-0.9-1.4-0.9-2.2v-7.6c0-0.9,0.3-1.6,0.9-2.2
			c0.6-0.6,1.4-0.9,2.2-0.9H381.7z M372.6,123.1c-0.3,0.3-0.5,0.7-0.5,1.2v7.1c0,0.5,0.2,0.9,0.5,1.2c0.3,0.3,0.7,0.5,1.2,0.5h7.5
			c0.5,0,0.9-0.2,1.2-0.5c0.3-0.3,0.5-0.7,0.5-1.2v-7.1c0-0.5-0.2-0.9-0.5-1.2c-0.3-0.3-0.7-0.5-1.2-0.5h-7.5
			C373.3,122.6,372.9,122.8,372.6,123.1z"/>
		<path class="st0" d="M401.8,120.9v1.7H392c-0.5,0-0.9,0.2-1.2,0.5c-0.3,0.3-0.5,0.7-0.5,1.2v7.1c0,0.5,0.2,0.9,0.5,1.2
			c0.3,0.3,0.7,0.5,1.2,0.5h7.2c0.5,0,0.9-0.2,1.2-0.5c0.3-0.3,0.5-0.7,0.5-1.2v-3H397v-1.7h5.7v5c0,0.9-0.3,1.6-0.9,2.2
			c-0.6,0.6-1.4,0.9-2.2,0.9h-8.1c-0.9,0-1.6-0.3-2.2-0.9c-0.6-0.6-0.9-1.3-0.9-2.2v-7.7c0-0.9,0.3-1.6,0.9-2.2
			c0.6-0.6,1.4-0.9,2.2-0.9H401.8z"/>
		<path class="st0" d="M415.5,120.9l7.2,13.9h-2.1l-2.2-4.3h-8l-2.2,4.3h-2.2l7.2-13.9H415.5z M411.3,128.8h6.1l-3.1-6L411.3,128.8z
			"/>
		<path class="st0" d="M440.5,134.8H439L428,124v10.8h-1.9v-13.9h1.5l11,10.8v-10.8h1.9V134.8z"/>
	</g>
</g>
<g>
	<g class="st1">
		<path class="st2" d="M85.1,158.2c-35.3,0-64,1.6-64,3.5c0,1.9,28.6,3.5,64,3.5c35.3,0,64-1.6,64-3.5
			C149.1,159.8,120.4,158.2,85.1,158.2z"/>
		<path class="st3" d="M85.1,158.2c-34.7,0-62.8,1.6-62.8,3.5c0,1.9,28.1,3.5,62.8,3.5c34.7,0,62.8-1.6,62.8-3.5
			C147.9,159.8,119.8,158.2,85.1,158.2z"/>
		<path class="st4" d="M85.1,158.2c-34,0-61.6,1.5-61.6,3.4c0,1.9,27.6,3.4,61.6,3.4c34,0,61.6-1.5,61.6-3.4
			C146.7,159.8,119.1,158.2,85.1,158.2z"/>
		<path class="st5" d="M85.1,158.3c-33.4,0-60.5,1.5-60.5,3.3c0,1.8,27.1,3.3,60.5,3.3c33.4,0,60.5-1.5,60.5-3.3
			C145.6,159.8,118.5,158.3,85.1,158.3z"/>
		<path class="st6" d="M85.1,158.3c-32.7,0-59.3,1.5-59.3,3.3c0,1.8,26.5,3.3,59.3,3.3c32.7,0,59.3-1.5,59.3-3.3
			C144.4,159.8,117.8,158.3,85.1,158.3z"/>
		<path class="st7" d="M85.1,158.3c-32.1,0-58.1,1.4-58.1,3.2c0,1.8,26,3.2,58.1,3.2c32.1,0,58.1-1.4,58.1-3.2
			C143.2,159.8,117.2,158.3,85.1,158.3z"/>
		<path class="st8" d="M85.1,158.3c-31.5,0-56.9,1.4-56.9,3.1c0,1.7,25.5,3.1,56.9,3.1c31.4,0,56.9-1.4,56.9-3.1
			C142,159.8,116.5,158.3,85.1,158.3z"/>
		<path class="st9" d="M85.1,158.4c-30.8,0-55.8,1.4-55.8,3.1c0,1.7,25,3.1,55.8,3.1c30.8,0,55.8-1.4,55.8-3.1
			C140.9,159.8,115.9,158.4,85.1,158.4z"/>
		<path class="st10" d="M85.1,158.4c-30.2,0-54.6,1.3-54.6,3c0,1.7,24.4,3,54.6,3c30.2,0,54.6-1.4,54.6-3
			C139.7,159.8,115.2,158.4,85.1,158.4z"/>
		<path class="st11" d="M85.1,158.4c-29.5,0-53.4,1.3-53.4,2.9c0,1.6,23.9,2.9,53.4,2.9c29.5,0,53.4-1.3,53.4-2.9
			C138.5,159.8,114.6,158.4,85.1,158.4z"/>
		<path class="st12" d="M85.1,158.5c-28.9,0-52.3,1.3-52.3,2.9c0,1.6,23.4,2.9,52.3,2.9c28.9,0,52.3-1.3,52.3-2.9
			C137.3,159.7,113.9,158.5,85.1,158.5z"/>
		<path class="st13" d="M85.1,158.5c-28.2,0-51.1,1.3-51.1,2.8c0,1.6,22.9,2.8,51.1,2.8c28.2,0,51.1-1.3,51.1-2.8
			C136.2,159.7,113.3,158.5,85.1,158.5z"/>
		<path class="st14" d="M85.1,158.5c-27.6,0-49.9,1.2-49.9,2.8c0,1.5,22.3,2.8,49.9,2.8c27.6,0,49.9-1.2,49.9-2.8
			C135,159.7,112.7,158.5,85.1,158.5z"/>
		<path class="st15" d="M85.1,158.5c-26.9,0-48.7,1.2-48.7,2.7c0,1.5,21.8,2.7,48.7,2.7c26.9,0,48.7-1.2,48.7-2.7
			C133.8,159.7,112,158.5,85.1,158.5z"/>
		<path class="st16" d="M85.1,158.6c-26.3,0-47.6,1.2-47.6,2.6c0,1.4,21.3,2.6,47.6,2.6c26.3,0,47.6-1.2,47.6-2.6
			C132.7,159.7,111.4,158.6,85.1,158.6z"/>
		<path class="st17" d="M85.1,158.6c-25.6,0-46.4,1.1-46.4,2.6c0,1.4,20.8,2.6,46.4,2.6c25.6,0,46.4-1.1,46.4-2.6
			C131.5,159.7,110.7,158.6,85.1,158.6z"/>
		<path class="st18" d="M85.1,158.6c-25,0-45.2,1.1-45.2,2.5c0,1.4,20.2,2.5,45.2,2.5c25,0,45.2-1.1,45.2-2.5
			C130.3,159.7,110.1,158.6,85.1,158.6z"/>
		<path class="st19" d="M85.1,158.7c-24.3,0-44.1,1.1-44.1,2.4c0,1.3,19.7,2.4,44.1,2.4c24.3,0,44-1.1,44-2.4
			C129.1,159.7,109.4,158.7,85.1,158.7z"/>
		<path class="st20" d="M85.1,158.7c-23.7,0-42.9,1.1-42.9,2.4c0,1.3,19.2,2.4,42.9,2.4c23.7,0,42.9-1.1,42.9-2.4
			C128,159.7,108.8,158.7,85.1,158.7z"/>
		<path class="st21" d="M85.1,158.7c-23,0-41.7,1-41.7,2.3c0,1.3,18.7,2.3,41.7,2.3c23,0,41.7-1,41.7-2.3
			C126.8,159.7,108.1,158.7,85.1,158.7z"/>
		<path class="st22" d="M85.1,158.7c-22.4,0-40.5,1-40.5,2.2c0,1.2,18.1,2.2,40.5,2.2c22.4,0,40.5-1,40.5-2.2
			C125.6,159.7,107.5,158.7,85.1,158.7z"/>
		<path class="st23" d="M85.1,158.8c-21.7,0-39.4,1-39.4,2.2c0,1.2,17.6,2.2,39.4,2.2c21.7,0,39.4-1,39.4-2.2
			C124.4,159.7,106.8,158.8,85.1,158.8z"/>
		<path class="st24" d="M85.1,158.8c-21.1,0-38.2,0.9-38.2,2.1c0,1.2,17.1,2.1,38.2,2.1c21.1,0,38.2-0.9,38.2-2.1
			C123.3,159.7,106.2,158.8,85.1,158.8z"/>
		<path class="st25" d="M85.1,158.8c-20.4,0-37,0.9-37,2c0,1.1,16.6,2,37,2c20.4,0,37-0.9,37-2C122.1,159.7,105.5,158.8,85.1,158.8z
			"/>
		<path class="st26" d="M85.1,158.8c-19.8,0-35.8,0.9-35.8,2c0,1.1,16,2,35.8,2c19.8,0,35.8-0.9,35.8-2
			C120.9,159.7,104.9,158.8,85.1,158.8z"/>
		<path class="st27" d="M85.1,158.9c-19.1,0-34.7,0.9-34.7,1.9c0,1.1,15.5,1.9,34.7,1.9c19.1,0,34.7-0.9,34.7-1.9
			C119.8,159.7,104.2,158.9,85.1,158.9z"/>
		<path class="st28" d="M85.1,158.9c-18.5,0-33.5,0.8-33.5,1.8c0,1,15,1.8,33.5,1.8c18.5,0,33.5-0.8,33.5-1.8
			C118.6,159.7,103.6,158.9,85.1,158.9z"/>
		<path class="st29" d="M85.1,158.9c-17.9,0-32.3,0.8-32.3,1.8c0,1,14.5,1.8,32.3,1.8c17.8,0,32.3-0.8,32.3-1.8
			C117.4,159.7,102.9,158.9,85.1,158.9z"/>
		<path class="st30" d="M85.1,159c-17.2,0-31.2,0.8-31.2,1.7c0,0.9,13.9,1.7,31.2,1.7c17.2,0,31.2-0.8,31.2-1.7
			C116.2,159.7,102.3,159,85.1,159z"/>
		<path class="st31" d="M85.1,159c-16.6,0-30,0.7-30,1.7c0,0.9,13.4,1.7,30,1.7c16.6,0,30-0.7,30-1.7
			C115.1,159.7,101.6,159,85.1,159z"/>
		<path class="st32" d="M85.1,159c-15.9,0-28.8,0.7-28.8,1.6c0,0.9,12.9,1.6,28.8,1.6c15.9,0,28.8-0.7,28.8-1.6
			C113.9,159.7,101,159,85.1,159z"/>
		<path class="st33" d="M85.1,159c-15.3,0-27.6,0.7-27.6,1.5c0,0.8,12.4,1.5,27.6,1.5c15.3,0,27.6-0.7,27.6-1.5
			C112.7,159.7,100.3,159,85.1,159z"/>
		<path class="st34" d="M85.1,159.1c-14.6,0-26.5,0.7-26.5,1.5c0,0.8,11.8,1.5,26.5,1.5c14.6,0,26.5-0.7,26.5-1.5
			C111.6,159.7,99.7,159.1,85.1,159.1z"/>
		<path class="st35" d="M85.1,159.1c-14,0-25.3,0.6-25.3,1.4c0,0.8,11.3,1.4,25.3,1.4c14,0,25.3-0.6,25.3-1.4
			C110.4,159.7,99.1,159.1,85.1,159.1z"/>
		<path class="st36" d="M85.1,159.1c-13.3,0-24.1,0.6-24.1,1.3c0,0.7,10.8,1.3,24.1,1.3c13.3,0,24.1-0.6,24.1-1.3
			C109.2,159.7,98.4,159.1,85.1,159.1z"/>
		<path class="st37" d="M85.1,159.1c-12.7,0-22.9,0.6-22.9,1.3c0,0.7,10.3,1.3,22.9,1.3c12.7,0,22.9-0.6,22.9-1.3
			C108,159.7,97.8,159.1,85.1,159.1z"/>
		<path class="st38" d="M85.1,159.2c-12,0-21.8,0.5-21.8,1.2c0,0.7,9.8,1.2,21.8,1.2c12,0,21.8-0.5,21.8-1.2
			C106.9,159.7,97.1,159.2,85.1,159.2z"/>
		<path class="st39" d="M85.1,159.2c-11.4,0-20.6,0.5-20.6,1.1c0,0.6,9.2,1.1,20.6,1.1c11.4,0,20.6-0.5,20.6-1.1
			C105.7,159.7,96.5,159.2,85.1,159.2z"/>
		<path class="st40" d="M85.1,159.2c-10.7,0-19.4,0.5-19.4,1.1c0,0.6,8.7,1.1,19.4,1.1c10.7,0,19.4-0.5,19.4-1.1
			C104.5,159.7,95.8,159.2,85.1,159.2z"/>
		<path class="st41" d="M85.1,159.3c-10.1,0-18.3,0.4-18.3,1c0,0.6,8.2,1,18.3,1c10.1,0,18.3-0.5,18.3-1
			C103.3,159.7,95.2,159.3,85.1,159.3z"/>
		<path class="st42" d="M85.1,159.3c-9.4,0-17.1,0.4-17.1,0.9c0,0.5,7.7,0.9,17.1,0.9c9.4,0,17.1-0.4,17.1-0.9
			C102.2,159.7,94.5,159.3,85.1,159.3z"/>
		<path class="st0" d="M85.1,159.3c-8.8,0-15.9,0.4-15.9,0.9c0,0.5,7.1,0.9,15.9,0.9c8.8,0,15.9-0.4,15.9-0.9
			C101,159.7,93.9,159.3,85.1,159.3z"/>
	</g>
	<g>
		<g>
			<polygon class="st0" points="85.6,43.1 85.6,26.9 113.1,42.7 99.1,50.8 			"/>
		</g>
		<g>
			<polygon class="st0" points="114.8,59.9 114.8,43.7 142.2,59.6 128.2,67.7 			"/>
		</g>
		<g>
			<polygon class="st0" points="115.3,76.4 129.4,68.2 129.4,68.2 142.8,60.5 142.8,92.2 			"/>
		</g>
		<g>
			<polygon class="st0" points="56.5,43.7 70,51.5 56.5,59.3 			"/>
		</g>
		<g>
			<polygon class="st0" points="57.1,42.7 84.5,26.9 84.5,43.1 71.1,50.8 			"/>
		</g>
		<g>
			<polygon class="st0" points="100.2,51.5 113.7,43.7 113.7,59.3 			"/>
		</g>
		<g>
			<polygon class="st0" points="27.4,60.5 41.4,68.6 41.4,84.1 27.4,92.2 			"/>
		</g>
		<g>
			<polygon class="st0" points="85.6,85.7 85.6,60.5 113.1,76.4 96.9,85.7 			"/>
		</g>
		<g>
			<polygon class="st0" points="85.6,100.7 96.9,100.7 113.1,110 85.6,125.9 			"/>
		</g>
		<g>
			<polygon class="st0" points="27.9,59.6 55.4,43.7 55.4,59.9 42,67.7 			"/>
		</g>
		<g>
			<polygon class="st0" points="73.3,85.7 57.1,76.4 84.5,60.5 84.5,85.7 			"/>
		</g>
		<g>
			<polygon class="st0" points="56.5,100.7 71.1,100.7 56.5,109 			"/>
		</g>
		<g>
			<polygon class="st0" points="56.5,85.7 56.5,77.3 71,85.7 			"/>
		</g>
		<g>
			<polygon class="st0" points="56.5,127.1 70,134.9 56.5,142.7 			"/>
		</g>
		<g>
			<polygon class="st0" points="27.4,94.1 54.8,110 41.1,118 41.1,118 27.4,125.9 			"/>
		</g>
		<g>
			<polygon class="st0" points="27.9,93.2 41.4,85.4 41.4,100.7 55.4,100.7 55.4,109 			"/>
		</g>
		<g>
			<polygon class="st0" points="27.9,126.8 42,118.7 55.4,126.5 55.4,142.7 			"/>
		</g>
		<g>
			<polygon class="st0" points="85.6,143.3 99.1,135.5 113.1,143.6 85.6,159.5 			"/>
		</g>
		<g>
			<polygon class="st0" points="57.1,143.6 71.1,135.5 84.5,143.3 84.5,159.5 			"/>
		</g>
		<g>
			<polygon class="st0" points="57.1,110 73.3,100.7 84.5,100.7 84.5,125.9 			"/>
		</g>
		<g>
			<polygon class="st0" points="128.8,85.7 114.8,85.7 114.8,77.3 142.2,93.2 128.8,101 			"/>
		</g>
		<g>
			<polygon class="st0" points="128.8,117.8 128.8,102.3 142.8,94.1 142.8,125.9 			"/>
		</g>
		<g>
			<polygon class="st0" points="114.8,126.5 128.2,118.7 142.2,126.8 114.8,142.7 			"/>
		</g>
		<g>
			<polygon class="st0" points="99.1,100.7 113.7,100.7 113.7,109 			"/>
		</g>
		<g>
			<polygon class="st0" points="99.1,85.7 113.7,77.3 113.7,85.7 			"/>
		</g>
		<g>
			<polygon class="st0" points="100.2,134.9 113.7,127.1 113.7,142.7 			"/>
		</g>
	</g>
</g>
</svg>
