<?xml version="1.0" encoding="utf-8"?>
<!-- Generator: Adobe Illustrator 22.0.1, SVG Export Plug-In . SVG Version: 6.00 Build 0)  -->
<svg version="1.1" id="Layer_1" xmlns="http://www.w3.org/2000/svg" xmlns:xlink="http://www.w3.org/1999/xlink" x="0px" y="0px"
	 viewBox="0 0 599.9 233.9" style="enable-background:new 0 0 599.9 233.9;" xml:space="preserve">
<style type="text/css">
	.st0{fill:#9A999A;}
</style>
<path class="st0" d="M221.9,154.3h-7.6v-2.7h18.4v2.7h-7.6v22.2h-3.3V154.3z"/>
<path class="st0" d="M238.8,150.2h3.3v11.2h0.1c0.5-0.9,1.3-1.7,2.3-2.3c1-0.6,2.1-0.9,3.3-0.9c2.4,0,6.2,1.5,6.2,7.7v10.6h-3.3
	v-10.3c0-2.9-1.1-5.3-4.1-5.3c-2.1,0-3.8,1.5-4.4,3.3c-0.2,0.4-0.2,0.9-0.2,1.6v10.8h-3.3V150.2z"/>
<path class="st0" d="M266.7,153.6c0,1.1-0.8,2-2.1,2c-1.1,0-2-0.9-2-2c0-1.1,0.9-2,2-2C265.9,151.5,266.7,152.4,266.7,153.6z
	 M263.1,176.5v-17.9h3.3v17.9H263.1z"/>
<path class="st0" d="M274.9,173.1c1,0.6,2.7,1.3,4.3,1.3c2.4,0,3.5-1.2,3.5-2.7c0-1.6-0.9-2.4-3.3-3.3c-3.2-1.1-4.7-2.9-4.7-5.1
	c0-2.9,2.3-5.2,6.2-5.2c1.8,0,3.4,0.5,4.4,1.1l-0.8,2.4c-0.7-0.4-2-1-3.7-1c-1.9,0-3,1.1-3,2.4c0,1.5,1.1,2.1,3.4,3
	c3.1,1.2,4.7,2.7,4.7,5.4c0,3.1-2.4,5.4-6.7,5.4c-2,0-3.8-0.5-5-1.2L274.9,173.1z"/>
<path class="st0" d="M308.9,153.6c0,1.1-0.8,2-2.1,2c-1.1,0-2-0.9-2-2c0-1.1,0.9-2,2-2C308.1,151.5,308.9,152.4,308.9,153.6z
	 M305.3,176.5v-17.9h3.3v17.9H305.3z"/>
<path class="st0" d="M317.2,173.1c1,0.6,2.7,1.3,4.3,1.3c2.4,0,3.5-1.2,3.5-2.7c0-1.6-0.9-2.4-3.3-3.3c-3.2-1.1-4.7-2.9-4.7-5.1
	c0-2.9,2.3-5.2,6.2-5.2c1.8,0,3.4,0.5,4.4,1.1l-0.8,2.4c-0.7-0.4-2-1-3.7-1c-1.9,0-3,1.1-3,2.4c0,1.5,1.1,2.1,3.4,3
	c3.1,1.2,4.7,2.7,4.7,5.4c0,3.1-2.4,5.4-6.7,5.4c-2,0-3.8-0.5-5-1.2L317.2,173.1z"/>
<path class="st0" d="M348.6,158.6l3.9,10.6c0.4,1.2,0.9,2.6,1.1,3.7h0.1c0.3-1.1,0.7-2.4,1.1-3.7l3.5-10.5h3.4l-4.9,12.8
	c-2.3,6.1-3.9,9.3-6.1,11.2c-1.6,1.4-3.2,2-4,2.1l-0.8-2.7c0.8-0.3,1.9-0.8,2.8-1.6c0.9-0.7,2-2,2.7-3.6c0.1-0.3,0.3-0.6,0.3-0.8
	c0-0.2-0.1-0.4-0.2-0.9l-6.6-16.5H348.6z"/>
<path class="st0" d="M384.4,167.4c0,6.6-4.6,9.5-8.9,9.5c-4.8,0-8.6-3.5-8.6-9.2c0-6,3.9-9.5,8.9-9.5
	C380.9,158.2,384.4,161.9,384.4,167.4z M370.2,167.6c0,3.9,2.3,6.9,5.4,6.9c3.1,0,5.4-2.9,5.4-7c0-3-1.5-6.9-5.4-6.9
	C371.8,160.6,370.2,164.2,370.2,167.6z"/>
<path class="st0" d="M407.1,171.6c0,1.8,0,3.5,0.1,4.9h-2.9l-0.2-2.9h-0.1c-0.8,1.4-2.7,3.3-5.9,3.3c-2.8,0-6.2-1.6-6.2-7.8v-10.5
	h3.3v9.9c0,3.4,1,5.7,4,5.7c2.2,0,3.7-1.5,4.3-3c0.2-0.5,0.3-1.1,0.3-1.7v-11h3.3V171.6z"/>
<path class="st0" d="M416.2,164.2c0-2.1,0-3.9-0.1-5.6h2.8l0.1,3.5h0.1c0.8-2.4,2.8-3.9,5-3.9c0.4,0,0.6,0,0.9,0.1v3.1
	c-0.3-0.1-0.7-0.1-1.1-0.1c-2.3,0-3.9,1.7-4.4,4.2c-0.1,0.4-0.1,1-0.1,1.5v9.5h-3.2V164.2z"/>
<path class="st0" d="M443.1,173.1c1,0.6,2.7,1.3,4.3,1.3c2.4,0,3.5-1.2,3.5-2.7c0-1.6-0.9-2.4-3.3-3.3c-3.2-1.1-4.7-2.9-4.7-5.1
	c0-2.9,2.3-5.2,6.2-5.2c1.8,0,3.4,0.5,4.4,1.1l-0.8,2.4c-0.7-0.4-2-1-3.7-1c-1.9,0-3,1.1-3,2.4c0,1.5,1.1,2.1,3.4,3
	c3.1,1.2,4.7,2.7,4.7,5.4c0,3.1-2.4,5.4-6.7,5.4c-2,0-3.8-0.5-5-1.2L443.1,173.1z"/>
<path class="st0" d="M461.9,150.2h3.3v26.2h-3.3V150.2z"/>
<path class="st0" d="M490.5,167.4c0,6.6-4.6,9.5-8.9,9.5c-4.8,0-8.6-3.5-8.6-9.2c0-6,3.9-9.5,8.9-9.5
	C487,158.2,490.5,161.9,490.5,167.4z M476.3,167.6c0,3.9,2.3,6.9,5.4,6.9c3.1,0,5.4-2.9,5.4-7c0-3-1.5-6.9-5.4-6.9
	C477.9,160.6,476.3,164.2,476.3,167.6z"/>
<path class="st0" d="M513.7,158.6c-0.1,1.3-0.1,2.7-0.1,4.9v10.4c0,4.1-0.8,6.6-2.6,8.2c-1.7,1.6-4.3,2.1-6.5,2.1
	c-2.1,0-4.5-0.5-6-1.5l0.8-2.5c1.2,0.7,3,1.4,5.2,1.4c3.3,0,5.8-1.7,5.8-6.2v-2h-0.1c-1,1.7-2.9,3-5.7,3c-4.4,0-7.6-3.8-7.6-8.7
	c0-6.1,4-9.5,8.1-9.5c3.1,0,4.8,1.6,5.6,3.1h0.1l0.1-2.7H513.7z M510.3,165.6c0-0.6,0-1-0.2-1.5c-0.6-1.9-2.2-3.4-4.5-3.4
	c-3.1,0-5.3,2.6-5.3,6.8c0,3.5,1.8,6.4,5.3,6.4c2,0,3.8-1.3,4.5-3.3c0.2-0.6,0.3-1.2,0.3-1.7V165.6z"/>
<path class="st0" d="M532.5,176.5l-0.3-2.3h-0.1c-1,1.4-2.9,2.7-5.5,2.7c-3.6,0-5.5-2.6-5.5-5.1c0-4.3,3.8-6.7,10.8-6.7v-0.4
	c0-1.5-0.4-4.1-4.1-4.1c-1.7,0-3.4,0.5-4.7,1.3l-0.7-2.1c1.5-1,3.6-1.6,5.9-1.6c5.5,0,6.8,3.7,6.8,7.3v6.7c0,1.6,0.1,3.1,0.3,4.3
	H532.5z M532.1,167.3c-3.5-0.1-7.6,0.6-7.6,4c0,2.1,1.4,3.1,3.1,3.1c2.3,0,3.8-1.5,4.3-3c0.1-0.3,0.2-0.7,0.2-1V167.3z"/>
<path class="st0" d="M544.1,163.4c0-1.8,0-3.4-0.1-4.8h2.9l0.2,3h0.1c0.9-1.7,3-3.4,5.9-3.4c2.5,0,6.3,1.5,6.3,7.6v10.7h-3.3v-10.3
	c0-2.9-1.1-5.3-4.1-5.3c-2.1,0-3.8,1.5-4.4,3.3c-0.1,0.4-0.2,1-0.2,1.5v10.8h-3.3V163.4z"/>
<path class="st0" d="M239.4,134.3c-3.8-0.1-7.3-0.7-10.5-1.8c-3.2-1.1-6-2.6-8.3-4.6c-2.3-2-4.1-4.4-5.5-7.4
	c-1.3-2.9-2-6.3-2.1-10.2h7.4c0.5,5.9,2.5,10.1,5.9,12.7c3.4,2.6,7.8,3.9,13.1,3.9c2.1,0,4.2-0.3,6.2-0.8c2-0.5,3.8-1.3,5.3-2.4
	c1.5-1.1,2.8-2.4,3.7-4.1c1-1.7,1.4-3.6,1.4-5.9c0-2.6-0.6-4.8-1.7-6.5c-1.2-1.7-2.7-3.1-4.6-4.3c-1.9-1.2-4.1-2.2-6.5-3
	c-2.4-0.8-4.9-1.6-7.4-2.5c-2.5-0.8-5-1.8-7.4-2.8c-2.4-1-4.6-2.2-6.5-3.8c-1.9-1.5-3.4-3.4-4.6-5.7c-1.2-2.3-1.7-5-1.7-8.4
	c0-3.4,0.7-6.4,2-9.1c1.3-2.7,3-5,5.2-6.8c2.2-1.9,4.6-3.3,7.5-4.3c2.8-1,5.8-1.5,8.8-1.5c2.8,0,5.6,0.5,8.2,1.4
	c2.6,0.9,5,2.2,7,3.8c2,1.6,3.7,3.6,4.9,6c1.2,2.4,1.9,5,1.9,7.8h-7.4c-0.1-2-0.7-3.7-1.5-5.1c-0.9-1.4-2-2.6-3.4-3.6
	c-1.4-1-2.9-1.7-4.6-2.1c-1.7-0.5-3.4-0.7-5.1-0.7c-2.2,0-4.3,0.3-6.2,1c-1.9,0.7-3.6,1.6-5.1,2.8c-1.4,1.2-2.6,2.7-3.4,4.5
	c-0.8,1.8-1.3,3.8-1.3,6c0,2.4,0.6,4.4,1.7,5.9c1.1,1.6,2.6,2.9,4.4,4c1.8,1.1,3.9,2,6.3,2.8c2.3,0.8,4.7,1.6,7.2,2.3
	c2.5,0.8,4.9,1.7,7.3,2.6c2.4,1,4.5,2.3,6.4,3.8c4.9,4,7.3,9,7.3,15.3c0,3.4-0.7,6.4-2.1,9c-1.4,2.6-3.2,4.7-5.5,6.4
	c-2.3,1.7-4.9,3-7.7,3.9C245.2,133.9,242.3,134.3,239.4,134.3z"/>
<path class="st0" d="M320.8,84.8c2.8,2.8,4.9,5.9,6.3,9.4c1.4,3.5,2.2,7.2,2.2,11.1v26.5h-7.4v-7.9c-1.4,2-3,3.6-4.7,4.9
	c-1.7,1.3-3.5,2.4-5.4,3.2c-1.9,0.8-3.8,1.4-5.8,1.7c-2,0.4-3.9,0.5-5.7,0.5c-3.9,0-7.6-0.7-11.1-2.2c-3.5-1.5-6.6-3.6-9.3-6.3
	c-2.8-2.8-4.9-5.9-6.3-9.4c-1.4-3.5-2.2-7.2-2.2-11c0-3.9,0.7-7.6,2.2-11.1c1.4-3.5,3.5-6.7,6.3-9.4c2.7-2.7,5.8-4.8,9.3-6.2
	c3.5-1.5,7.2-2.2,11.1-2.2c3.9,0,7.6,0.7,11.1,2.2C315,80.1,318.1,82.1,320.8,84.8z M300.4,126.9c3,0,5.8-0.6,8.4-1.7
	c2.6-1.1,4.9-2.7,6.8-4.6c1.9-1.9,3.5-4.2,4.6-6.8c1.1-2.6,1.7-5.4,1.7-8.4c0-3-0.6-5.8-1.7-8.4c-1.1-2.6-2.7-4.9-4.6-6.9
	c-1.9-1.9-4.2-3.5-6.8-4.6c-2.6-1.1-5.4-1.7-8.4-1.7c-3,0-5.8,0.6-8.4,1.7c-2.6,1.1-4.9,2.7-6.8,4.6c-1.9,1.9-3.5,4.2-4.6,6.9
	c-1.1,2.6-1.7,5.5-1.7,8.4c0,3,0.6,5.8,1.7,8.4c1.1,2.6,2.7,4.9,4.6,6.8c1.9,1.9,4.2,3.5,6.8,4.6
	C294.6,126.3,297.4,126.9,300.4,126.9z"/>
<path class="st0" d="M422.4,99.9c0-2.3-0.4-4.4-1.3-6.4c-0.9-2-2.1-3.7-3.5-5.2c-1.5-1.5-3.2-2.6-5.2-3.5c-2-0.8-4.1-1.3-6.4-1.3
	c-2.2,0-4.3,0.4-6.3,1.2c-2,0.8-3.7,2-5.2,3.4c-1.5,1.5-2.7,3.2-3.5,5.2c-0.9,2-1.4,4.1-1.4,6.5v32h-7.4v-32
	c-0.1-2.3-0.7-4.5-1.5-6.5c-0.9-2-2.1-3.7-3.5-5.2c-1.5-1.5-3.2-2.6-5.1-3.4c-1.9-0.8-4-1.2-6.2-1.2c-2.3,0-4.4,0.4-6.4,1.3
	c-2,0.8-3.7,2-5.2,3.5c-1.5,1.5-2.6,3.2-3.5,5.2c-0.8,2-1.3,4.1-1.3,6.4v32H342v-53h6.1l1.3,3.7c2.2-2.1,4.7-3.7,7.5-4.8
	c2.8-1.1,5.7-1.6,8.8-1.6c3.2,0,6.2,0.6,9.1,1.7c2.9,1.2,5.5,2.9,7.7,5.1c1.2,1.2,2.3,2.6,3.3,4.1c1-1.6,2.1-2.9,3.3-4.1
	c2.3-2.3,4.8-4,7.7-5.1c2.9-1.2,5.9-1.7,9.1-1.7c3.2,0,6.2,0.6,9.1,1.7c2.9,1.2,5.5,2.9,7.7,5.1c2.3,2.3,4,4.8,5.2,7.7
	c1.2,2.9,1.8,5.9,1.8,9.1v32h-7.4V99.9z"/>
<path class="st0" d="M483.1,83c2.3,2.3,4,4.8,5.2,7.7c1.2,2.9,1.8,5.9,1.8,9.1v32h-7.4v-32c0-2.3-0.4-4.4-1.3-6.4
	c-0.9-2-2.1-3.7-3.5-5.2c-1.5-1.5-3.2-2.6-5.2-3.5c-2-0.8-4.1-1.3-6.4-1.3c-2.3,0-4.4,0.4-6.4,1.3c-2,0.8-3.7,2-5.2,3.5
	c-1.5,1.5-2.6,3.2-3.5,5.2c-0.8,2-1.3,4.1-1.3,6.4v32h-7.4v-53h6.1l1.3,4.8c2.3-2.5,4.8-4.3,7.5-5.6c2.8-1.3,5.7-1.9,8.8-1.9
	c3.2,0,6.2,0.6,9.1,1.7C478.3,79,480.9,80.8,483.1,83z"/>
<path class="st0" d="M552.2,84.8c2.8,2.8,4.9,5.9,6.3,9.4c1.4,3.5,2.2,7.2,2.2,11.1v26.5h-7.4v-7.9c-1.4,2-3,3.6-4.7,4.9
	c-1.7,1.3-3.5,2.4-5.3,3.2c-1.9,0.8-3.8,1.4-5.8,1.7c-2,0.4-3.9,0.5-5.7,0.5c-3.9,0-7.6-0.7-11.1-2.2c-3.5-1.5-6.6-3.6-9.3-6.3
	c-2.8-2.8-4.9-5.9-6.3-9.4c-1.4-3.5-2.2-7.2-2.2-11c0-3.9,0.7-7.6,2.2-11.1c1.4-3.5,3.5-6.7,6.3-9.4c2.7-2.7,5.8-4.8,9.3-6.2
	c3.5-1.5,7.2-2.2,11.1-2.2c3.9,0,7.6,0.7,11.1,2.2C546.4,80.1,549.5,82.1,552.2,84.8z M531.8,126.9c3,0,5.8-0.6,8.4-1.7
	c2.6-1.1,4.9-2.7,6.8-4.6c1.9-1.9,3.5-4.2,4.6-6.8c1.1-2.6,1.7-5.4,1.7-8.4c0-3-0.6-5.8-1.7-8.4c-1.1-2.6-2.7-4.9-4.6-6.9
	c-1.9-1.9-4.2-3.5-6.8-4.6c-2.6-1.1-5.4-1.7-8.4-1.7c-3,0-5.8,0.6-8.4,1.7c-2.6,1.1-4.9,2.7-6.8,4.6c-1.9,1.9-3.5,4.2-4.6,6.9
	c-1.1,2.6-1.7,5.5-1.7,8.4c0,3,0.6,5.8,1.7,8.4c1.1,2.6,2.7,4.9,4.6,6.8c1.9,1.9,4.2,3.5,6.8,4.6C526,126.3,528.8,126.9,531.8,126.9
	z"/>
<path class="st0" d="M134.7,135.5c10.3-6.4,21.8-11,34.1-13.4c-4.5-16.8-15.1-34.9-26.6-50.8c-14.9,1.8-28.6,7.3-40.1,15.8
	C118.1,98.8,129.9,115.8,134.7,135.5z"/>
<path class="st0" d="M72.9,125.3c-2.8-2.9-4.7-6.5-4.7-11.4c0-12.3,6.4-25.4,14.8-37.2c-6.5-2.5-13.4-4.3-20.5-5.2
	c-11.5,16-22.3,34.1-26.9,50.7c12.3,2.4,23.8,7,34.1,13.3C70.5,132,71.6,128.6,72.9,125.3z"/>
<path class="st0" d="M97.3,160.7c3.8-6.4,6.3-12,6.3-15.8c0-9-21.1-9.8-30.6-19.7c-1.3,3.3-2.4,6.7-3.2,10.2
	C80.4,142.1,89.7,150.7,97.3,160.7z"/>
<path class="st0" d="M168.9,122.1c-12.3,2.4-23.8,7-34.1,13.4c1.6,6.6,2.5,13.4,2.5,20.5c0,17.7-5.4,34.2-14.7,47.9
	c28.2-8.7,48.7-34.9,48.7-65.9C171.1,132.9,170.3,127.6,168.9,122.1z"/>
<path class="st0" d="M91.1,191.8c-1.4,4.4-2.5,8.9-3.3,13.6c4.6,1,9.4,1.5,14.3,1.5c4.9,0,9.7-0.5,14.3-1.5
	c-1.7-10.4-5-20.3-9.7-29.3C101.8,181.7,96.3,187.1,91.1,191.8z"/>
<path class="st0" d="M130.1,29.3c0,0-13.3,9.3-20.4,3.1c-4.6-4.9-7.5-7.7-7.5-7.7S81.3,45.4,62.5,71.4c7.2,0.9,14,2.7,20.5,5.2
	c11.7-16.6,27.1-30.7,33.8-36.5c1.8-1.6,3.1-2.6,3.4-2.8L130.1,29.3z"/>
<path class="st0" d="M60.5,192.8c4.4,4-3.7,18.9-3.7,18.9l7-7.5c1.5-1.6,3.2-3.6,5.2-5.8c1.8-2.1,3.8-4.4,5.9-7
	c-4.9-10.8-7.7-22.8-7.7-35.4c0-7.1,0.9-13.9,2.5-20.5c-10.3-6.4-21.8-11-34.1-13.3c-1.5,5.5-2.4,10.8-2.4,15.8
	C33.3,160.3,43.9,180.2,60.5,192.8z"/>
<path class="st0" d="M80.2,201.1c-0.6,0.5-1.2,1-1.8,1.5c-5.3,4.2-9,6.9-9.6,7.3l-7.5,5.3l0,0c0,0,17.9-9.8,26.5-9.8
	c0.8-4.6,1.9-9.2,3.3-13.6C87.2,195.3,83.5,198.5,80.2,201.1z"/>
<path class="st0" d="M128.3,53.3c-3.6-5.1,6.5-20.3,6.5-20.3l-9.4,9.9c-0.1,0.1-1.2,1.3-3.1,3.4c-5.7,6.5-18,21.4-25.5,37.2
	c-1.9,4-3.5,8.1-4.6,12.1c3.1-3.1,6.4-5.9,9.9-8.5c11.5-8.4,25.2-14,40.1-15.8C137.6,64.9,132.8,58.9,128.3,53.3z"/>
</svg>
