<?xml version="1.0" encoding="utf-8"?>
<!-- Generator: Adobe Illustrator 22.0.1, SVG Export Plug-In . SVG Version: 6.00 Build 0)  -->
<svg version="1.1" id="Слой_1" xmlns="http://www.w3.org/2000/svg" xmlns:xlink="http://www.w3.org/1999/xlink" x="0px" y="0px"
	 viewBox="0 0 374.2 122" style="enable-background:new 0 0 374.2 122;" xml:space="preserve">
<style type="text/css">
	.st0{fill:#9A999A;}
</style>
<path class="st0" d="M51.6,46.7c1.4,1,2.6,2.2,3.6,3.8c0.9,1.6,1.4,3.5,1.4,5.7c0,2.3-0.5,4.3-1.5,5.9c-1,1.7-2.3,3-3.9,4.1
	c-1.5,1.1-3.3,1.9-5.2,2.4c-1.9,0.6-3.9,0.8-6,0.8H16.8V67c0.6,0,1.4-0.1,2.4-0.3c1-0.2,1.8-0.3,2.3-0.5c0.7-0.3,1.2-0.8,1.5-1.3
	s0.4-1.2,0.4-2.1V27.6c0-0.8-0.1-1.5-0.4-2.1s-0.8-1.1-1.6-1.4c-0.7-0.4-1.5-0.6-2.3-0.8c-0.9-0.2-1.6-0.3-2.2-0.3v-2.5h22.7
	c1.7,0,3.4,0.2,5,0.5c1.6,0.3,3.1,1,4.6,1.8c1.4,0.8,2.5,1.9,3.4,3.3s1.3,3.1,1.3,5.1c0,1.7-0.3,3.3-0.9,4.6
	c-0.6,1.4-1.5,2.5-2.6,3.5c-1.1,0.9-2.3,1.7-3.6,2.3c-1.4,0.6-2.8,1.1-4.4,1.5v0.3c1.4,0.2,3,0.5,4.7,1C48.7,45,50.2,45.8,51.6,46.7
	L51.6,46.7z M43.2,39.3c0.8-1,1.4-2.1,1.8-3.3c0.3-1.2,0.5-2.6,0.5-4.2c0-2.7-0.7-4.8-2.2-6.3s-3.8-2.3-7-2.3c-0.7,0-1.7,0-2.8,0.1
	c-1.1,0-2.1,0.1-2.8,0.1v18.9h4.4c1.9,0,3.5-0.2,4.9-0.7C41.3,41,42.4,40.3,43.2,39.3L43.2,39.3z M48,55c0-2.9-1-5.3-2.9-7.1
	c-1.9-1.9-4.7-2.8-8.3-2.8c-1.5,0-2.7,0-3.7,0.1c-1,0-1.8,0.1-2.3,0.1v17.2c0,1.4,0.6,2.5,1.8,3.3c1.2,0.7,2.8,1.1,4.9,1.1
	c3.4,0,6-1,7.9-3C47.1,61.8,48,58.8,48,55L48,55z M112.5,23c-0.6,0-1.6,0.2-2.8,0.4c-1.2,0.3-2.2,0.6-3,1.1s-1.3,1.6-1.6,3.3
	c-0.3,1.7-0.4,3.7-0.4,6.1v21.3c0,2.7-0.6,5.1-1.7,7.1c-1.1,2-2.6,3.6-4.5,4.9c-1.8,1.2-3.7,2.1-5.7,2.7c-2,0.5-3.9,0.8-5.8,0.8
	c-2.9,0-5.6-0.4-7.9-1.2c-2.3-0.8-4.2-1.8-5.8-3.1c-1.5-1.3-2.7-2.8-3.5-4.5s-1.2-3.4-1.2-5.3V27.7c0-0.8-0.1-1.5-0.4-2
	c-0.3-0.5-0.8-1-1.6-1.5c-0.6-0.3-1.3-0.6-2.2-0.8c-0.9-0.2-1.7-0.3-2.2-0.4v-2.5h20.3V23c-0.6,0-1.5,0.1-2.4,0.3
	c-1,0.2-1.7,0.4-2.1,0.5c-0.8,0.3-1.3,0.7-1.6,1.4c-0.3,0.6-0.4,1.4-0.4,2.1v27c0,1.3,0.1,2.7,0.4,4.1c0.3,1.4,0.9,2.8,1.7,4
	c0.9,1.3,2.1,2.3,3.7,3.1c1.6,0.8,3.7,1.2,6.4,1.2c2.5,0,4.7-0.4,6.4-1.2c1.7-0.8,3.1-1.9,4.1-3.2c1-1.2,1.6-2.5,2-3.9
	s0.6-2.7,0.6-4.1V34.2c0-2.6-0.2-4.6-0.6-6.3c-0.4-1.6-0.9-2.7-1.6-3.2c-0.8-0.6-1.9-1-3.3-1.3c-1.4-0.3-2.5-0.5-3.2-0.6v-2.5h19.9
	L112.5,23L112.5,23z M146.9,47c1,1.2,1.8,2.4,2.3,3.8s0.7,3,0.7,4.8c0,4.3-1.6,7.9-4.8,10.7c-3.2,2.8-7.2,4.2-11.9,4.2
	c-2.2,0-4.4-0.3-6.6-1c-2.2-0.7-4.1-1.5-5.7-2.5l-1.5,2.5h-2.8l-0.5-16.7h2.8c0.6,2.1,1.2,3.9,2,5.6s1.8,3.2,3.1,4.7
	c1.2,1.4,2.6,2.4,4.2,3.2c1.6,0.8,3.5,1.2,5.6,1.2c1.6,0,3-0.2,4.1-0.6c1.2-0.4,2.1-1,2.9-1.8c0.7-0.8,1.3-1.6,1.6-2.7
	c0.4-1,0.5-2.2,0.5-3.5c0-1.9-0.6-3.8-1.6-5.5c-1.1-1.7-2.8-3-4.9-3.8c-1.5-0.6-3.2-1.3-5.1-2c-1.9-0.7-3.6-1.4-5-2
	c-2.8-1.2-4.9-2.9-6.4-4.9s-2.3-4.7-2.3-7.9c0-1.9,0.4-3.6,1.1-5.2c0.8-1.6,1.8-3,3.2-4.3c1.3-1.2,2.9-2.1,4.7-2.8
	c1.8-0.7,3.7-1,5.7-1c2.2,0,4.3,0.4,6.1,1c1.8,0.7,3.4,1.5,4.9,2.4l1.4-2.3h2.8l0.3,16.2H145c-0.5-1.9-1.1-3.6-1.7-5.3
	c-0.6-1.7-1.4-3.2-2.5-4.6c-1-1.3-2.2-2.4-3.6-3.2c-1.4-0.8-3.2-1.2-5.2-1.2c-2.2,0-4,0.7-5.6,2.1c-1.5,1.4-2.3,3.1-2.3,5.1
	c0,2.1,0.5,3.9,1.5,5.3s2.4,2.5,4.3,3.4c1.7,0.8,3.3,1.5,4.9,2.1c1.6,0.6,3.2,1.2,4.7,1.9c1.4,0.6,2.7,1.3,4,2
	C144.9,45.1,145.9,46,146.9,47L146.9,47z M177.5,69.5h-22V67c0.6,0,1.5-0.1,2.7-0.2s2-0.2,2.5-0.4c0.8-0.3,1.3-0.7,1.7-1.2
	c0.3-0.5,0.5-1.2,0.5-2.2V27.6c0-0.8-0.1-1.5-0.4-2c-0.3-0.5-0.8-1-1.8-1.4c-0.7-0.3-1.6-0.5-2.6-0.8c-1-0.2-1.9-0.4-2.6-0.4v-2.5
	h22V23c-0.7,0-1.6,0.1-2.6,0.3c-1,0.2-1.8,0.3-2.6,0.6c-0.9,0.3-1.5,0.7-1.8,1.3c-0.3,0.6-0.4,1.3-0.4,2.1v35.4c0,0.8,0.2,1.4,0.5,2
	s0.9,1.1,1.7,1.4c0.5,0.2,1.3,0.4,2.4,0.6c1.1,0.2,2,0.3,2.8,0.4L177.5,69.5L177.5,69.5z M233.7,23c-0.6,0-1.6,0.2-3,0.6
	c-1.3,0.3-2.3,0.7-2.9,1.1c-0.8,0.6-1.4,1.7-1.7,3.3c-0.3,1.6-0.4,3.7-0.4,6.2V70h-3L193,29.9v25.2c0,2.8,0.2,5,0.5,6.5
	c0.4,1.5,0.9,2.6,1.6,3.2c0.5,0.5,1.6,1,3.3,1.4c1.7,0.4,2.8,0.7,3.3,0.7v2.5h-20.1V67c0.6,0,1.7-0.3,3.1-0.7
	c1.5-0.4,2.4-0.8,2.8-1.1c0.8-0.7,1.4-1.6,1.6-3c0.3-1.3,0.4-3.6,0.4-6.8V31.3c0-1.1-0.2-2.1-0.6-3.2s-0.9-1.9-1.5-2.4
	c-0.8-0.8-1.9-1.4-3.4-1.9c-1.4-0.5-2.6-0.8-3.4-0.9v-2.5h14l27.5,37.3V34.5c0-2.8-0.2-5-0.6-6.6c-0.4-1.5-0.9-2.5-1.6-3
	c-0.6-0.4-1.7-0.9-3.2-1.3s-2.6-0.6-3.3-0.7v-2.5h19.8V23H233.7z M278.9,55.1L278,69.5h-40.6V67c0.7,0,1.6-0.1,2.8-0.3
	c1.2-0.2,1.9-0.3,2.3-0.5c0.7-0.4,1.3-0.8,1.5-1.4c0.3-0.5,0.4-1.3,0.4-2.1V27.5c0-0.8-0.1-1.4-0.4-2s-0.8-1.1-1.6-1.4
	c-0.6-0.3-1.5-0.6-2.5-0.8c-1-0.2-1.9-0.4-2.5-0.4v-2.5h37.9v11.8h-2.6c-0.5-1.7-1.4-3.6-3-5.6c-1.5-2-3-3-4.3-3.2
	c-0.7-0.1-1.6-0.2-2.5-0.2c-1,0-2.1-0.1-3.4-0.1h-7.7v19.4h5.5c1.8,0,3.1-0.2,3.9-0.5s1.5-0.9,2.1-1.7c0.5-0.7,0.9-1.6,1.3-2.7
	s0.6-2.2,0.7-3.1h2.6v19.1h-2.6c-0.1-1.1-0.3-2.3-0.7-3.5c-0.4-1.2-0.8-2.1-1.2-2.7c-0.7-0.9-1.5-1.5-2.4-1.8s-2.1-0.4-3.6-0.4h-5.5
	v14.7c0,1.5,0.1,2.6,0.3,3.5c0.2,0.8,0.6,1.5,1.2,1.9s1.4,0.7,2.4,0.8c1,0.1,2.5,0.2,4.4,0.2c0.8,0,1.8,0,3,0s2.3,0,3.1-0.1
	c0.9-0.1,1.8-0.3,2.7-0.5c0.9-0.2,1.6-0.6,2-1c1.1-1.1,2.2-2.8,3.3-5c1.2-2.2,1.9-3.9,2.2-4.9h2.4V55.1z M314.4,47
	c1,1.2,1.8,2.4,2.3,3.8s0.7,3,0.7,4.8c0,4.3-1.6,7.9-4.8,10.7c-3.2,2.8-7.2,4.2-11.9,4.2c-2.2,0-4.4-0.3-6.6-1S290,68,288.4,67
	l-1.5,2.5h-2.8l-0.5-16.7h2.8c0.6,2.1,1.3,3.9,2,5.6c0.8,1.7,1.8,3.2,3.1,4.7c1.2,1.4,2.6,2.4,4.2,3.2c1.6,0.8,3.4,1.2,5.6,1.2
	c1.6,0,3-0.2,4.1-0.6c1.2-0.4,2.1-1,2.9-1.8c0.7-0.8,1.3-1.6,1.6-2.7c0.4-1,0.5-2.2,0.5-3.5c0-1.9-0.6-3.8-1.7-5.5s-2.8-3-4.9-3.8
	c-1.5-0.6-3.2-1.3-5.1-2s-3.6-1.4-5-2c-2.8-1.2-4.9-2.9-6.4-4.9S285,36,285,32.8c0-1.9,0.4-3.6,1.1-5.2c0.8-1.6,1.8-3,3.2-4.3
	c1.3-1.2,2.9-2.1,4.7-2.8c1.8-0.7,3.7-1,5.7-1c2.2,0,4.3,0.4,6.1,1c1.8,0.7,3.4,1.5,4.9,2.4l1.4-2.3h2.8l0.3,16.2h-2.8
	c-0.5-1.9-1.1-3.6-1.7-5.3c-0.6-1.7-1.5-3.2-2.5-4.6c-1-1.3-2.2-2.4-3.6-3.2c-1.4-0.8-3.2-1.2-5.2-1.2c-2.2,0-4,0.7-5.6,2.1
	c-1.5,1.4-2.3,3.1-2.3,5.1c0,2.1,0.5,3.9,1.5,5.3s2.4,2.5,4.3,3.4c1.7,0.8,3.3,1.5,4.9,2.1s3.2,1.2,4.7,1.9c1.4,0.6,2.7,1.3,4,2
	C312.3,45.1,313.4,46,314.4,47L314.4,47z M354,47c1,1.2,1.8,2.4,2.3,3.8s0.7,3,0.7,4.8c0,4.3-1.6,7.9-4.8,10.7
	c-3.2,2.8-7.2,4.2-11.9,4.2c-2.2,0-4.4-0.3-6.6-1S329.6,68,328,67l-1.5,2.5h-2.8l-0.5-16.7h2.8c0.6,2.1,1.2,3.9,2,5.6s1.8,3.2,3,4.7
	c1.2,1.4,2.6,2.4,4.2,3.2c1.6,0.8,3.5,1.2,5.6,1.2c1.6,0,3-0.2,4.1-0.6c1.2-0.4,2.1-1,2.9-1.8c0.7-0.8,1.3-1.6,1.6-2.7
	c0.4-1,0.5-2.2,0.5-3.5c0-1.9-0.6-3.8-1.6-5.5c-1.1-1.7-2.8-3-4.9-3.8c-1.5-0.6-3.2-1.3-5.1-2s-3.6-1.4-5-2
	c-2.8-1.2-4.9-2.9-6.4-4.9s-2.3-4.7-2.3-7.9c0-1.9,0.4-3.6,1.1-5.2c0.8-1.6,1.8-3,3.2-4.3c1.3-1.2,2.9-2.1,4.7-2.8
	c1.8-0.7,3.7-1,5.7-1c2.3,0,4.3,0.4,6.1,1c1.8,0.7,3.4,1.5,4.9,2.4l1.4-2.3h2.8l0.3,16.2H352c-0.5-1.9-1.1-3.6-1.7-5.3
	c-0.6-1.7-1.4-3.2-2.5-4.6c-1-1.3-2.2-2.4-3.6-3.2c-1.4-0.8-3.2-1.2-5.2-1.2c-2.2,0-4,0.7-5.6,2.1c-1.5,1.4-2.3,3.1-2.3,5.1
	c0,2.1,0.5,3.9,1.5,5.3s2.4,2.5,4.3,3.4c1.7,0.8,3.3,1.5,5,2.1c1.6,0.6,3.2,1.2,4.7,1.9c1.4,0.6,2.7,1.3,4,2
	C352,45.1,353.1,46,354,47L354,47z"/>
<path class="st0" d="M30.5,95.3c-0.1,0-0.3,0-0.5,0.1s-0.4,0.2-0.5,0.2c-0.3,0.2-0.4,0.3-0.5,0.4s-0.3,0.3-0.5,0.7
	c-0.5,0.7-1,1.5-1.4,2.2c-0.4,0.8-1,1.7-1.7,2.9c-0.2,0.4-0.4,0.8-0.5,1c-0.1,0.3-0.1,0.6-0.1,1.1v2.7c0,0.2,0.1,0.5,0.1,0.6
	c0.1,0.2,0.3,0.3,0.5,0.4c0.1,0.1,0.4,0.1,0.7,0.2c0.4,0.1,0.7,0.1,0.9,0.1v0.7h-6.7v-0.7c0.2,0,0.5,0,0.8-0.1
	c0.4,0,0.6-0.1,0.8-0.1c0.2-0.1,0.4-0.2,0.5-0.4c0.1-0.2,0.1-0.4,0.1-0.6v-3.5c0-0.1-0.1-0.3-0.2-0.6c-0.1-0.3-0.3-0.6-0.5-1
	c-0.4-0.8-0.9-1.6-1.3-2.5c-0.5-0.9-0.9-1.7-1.3-2.3c-0.2-0.4-0.4-0.7-0.6-0.9c-0.2-0.2-0.4-0.4-0.6-0.5s-0.4-0.2-0.6-0.2
	c-0.2-0.1-0.4-0.1-0.6-0.1v-0.7h6.1v0.7c-0.7,0-1.2,0.1-1.4,0.1c-0.3,0.1-0.4,0.2-0.4,0.3c0,0,0,0.1,0.1,0.2c0,0.1,0.1,0.2,0.2,0.4
	c0.1,0.2,0.2,0.4,0.3,0.6c0.1,0.2,0.2,0.4,0.3,0.6c0.3,0.6,0.6,1.2,1,1.8c0.3,0.6,0.8,1.4,1.3,2.3c1.1-1.7,1.9-3,2.4-4
	c0.6-0.9,0.8-1.5,0.8-1.7s-0.1-0.3-0.2-0.4s-0.3-0.2-0.5-0.2S26.4,95,26.2,95s-0.4,0-0.6-0.1v-0.7h5v1.1H30.5z M45.5,96.2
	c0.6,0.7,1.1,1.5,1.5,2.4s0.5,2,0.5,3.1s-0.2,2.2-0.5,3.1c-0.4,0.9-0.9,1.7-1.5,2.4c-0.6,0.6-1.3,1.1-2.2,1.5
	c-0.8,0.4-1.7,0.5-2.6,0.5c-1,0-1.9-0.2-2.7-0.6c-0.8-0.4-1.6-0.9-2.2-1.6c-0.6-0.6-1.1-1.4-1.4-2.4c-0.3-0.9-0.5-1.9-0.5-3
	c0-1.2,0.2-2.2,0.5-3.1c0.4-0.9,0.9-1.7,1.5-2.4c0.6-0.7,1.4-1.2,2.2-1.5c0.8-0.4,1.7-0.5,2.6-0.5s1.8,0.2,2.7,0.5
	C44.2,95.1,44.9,95.6,45.5,96.2L45.5,96.2z M44,106.4c0.4-0.6,0.6-1.3,0.8-2.1c0.2-0.8,0.3-1.6,0.3-2.6S45,99.8,44.8,99
	c-0.2-0.8-0.5-1.5-0.8-2.1c-0.4-0.6-0.8-1-1.4-1.3s-1.2-0.5-1.9-0.5c-0.8,0-1.5,0.2-2.1,0.6s-1,0.9-1.4,1.5
	c-0.3,0.6-0.6,1.3-0.7,2.1c-0.2,0.8-0.3,1.6-0.3,2.5c0,1,0.1,1.8,0.3,2.6c0.2,0.8,0.5,1.5,0.8,2.1c0.4,0.6,0.8,1.1,1.4,1.4
	c0.5,0.3,1.2,0.5,2,0.5c0.7,0,1.4-0.2,1.9-0.5C43.2,107.4,43.6,107,44,106.4L44,106.4z M66.7,95.3c-0.2,0-0.5,0-0.8,0.1
	c-0.4,0.1-0.7,0.2-0.9,0.3c-0.2,0.2-0.4,0.5-0.5,1s-0.1,1.1-0.1,1.8v6.2c0,0.8-0.2,1.5-0.5,2.1s-0.8,1.1-1.3,1.4
	c-0.5,0.4-1.1,0.6-1.7,0.8c-0.6,0.2-1.1,0.2-1.7,0.2c-0.9,0-1.6-0.1-2.3-0.3c-0.7-0.2-1.2-0.5-1.7-0.9c-0.4-0.4-0.8-0.8-1-1.3
	s-0.3-1-0.3-1.5v-8.4c0-0.2,0-0.4-0.1-0.6s-0.2-0.3-0.5-0.4c-0.2-0.1-0.4-0.2-0.7-0.2c-0.3-0.1-0.5-0.1-0.7-0.1v-0.7h5.9v0.7
	c-0.2,0-0.4,0-0.7,0.1s-0.5,0.1-0.6,0.2c-0.2,0.1-0.4,0.2-0.5,0.4c-0.1,0.2-0.1,0.4-0.1,0.6v7.9c0,0.4,0,0.8,0.1,1.2
	c0.1,0.4,0.2,0.8,0.5,1.2c0.3,0.4,0.6,0.7,1.1,0.9c0.5,0.2,1.1,0.4,1.9,0.4c0.7,0,1.4-0.1,1.9-0.4c0.5-0.2,0.9-0.5,1.2-0.9
	s0.5-0.7,0.6-1.1s0.2-0.8,0.2-1.2v-5.9c0-0.7-0.1-1.4-0.2-1.8c-0.1-0.5-0.3-0.8-0.5-0.9c-0.2-0.2-0.6-0.3-1-0.4s-0.7-0.1-0.9-0.2
	v-0.7h5.8v0.4H66.7z M84.7,108.8h-3.8c-0.9-1.3-1.6-2.5-2.3-3.5s-1.4-2-2.2-3h-1.5v4.5c0,0.2,0,0.4,0.1,0.6s0.2,0.3,0.5,0.4
	c0.1,0,0.3,0.1,0.6,0.1s0.6,0.1,0.8,0.1v0.7h-6V108c0.2,0,0.4,0,0.7-0.1c0.3,0,0.5-0.1,0.6-0.1c0.2-0.1,0.3-0.2,0.4-0.4
	c0.1-0.2,0.1-0.4,0.1-0.6V96.5c0-0.2,0-0.4-0.1-0.6s-0.2-0.3-0.5-0.4c-0.2-0.1-0.4-0.1-0.6-0.2c-0.3,0-0.5-0.1-0.7-0.1v-0.7h6.6
	c0.6,0,1.2,0.1,1.7,0.2s1,0.3,1.4,0.6c0.4,0.3,0.7,0.6,1,1.1c0.2,0.4,0.4,1,0.4,1.6s-0.1,1-0.3,1.5c-0.2,0.4-0.4,0.8-0.7,1.1
	c-0.3,0.3-0.7,0.5-1.1,0.8c-0.4,0.2-0.9,0.4-1.4,0.5c0.7,0.9,1.3,1.7,1.8,2.4c0.5,0.6,1,1.4,1.7,2.3c0.3,0.4,0.6,0.7,0.8,0.9
	c0.2,0.2,0.5,0.3,0.7,0.5c0.2,0.1,0.4,0.2,0.7,0.2s0.5,0.1,0.7,0.1L84.7,108.8L84.7,108.8z M79.4,98.2c0-0.9-0.3-1.6-0.7-2.1
	c-0.5-0.5-1.2-0.8-2.1-0.8h-1.7v6.1h1.3c0.9,0,1.7-0.3,2.3-0.9C79.1,100,79.4,99.2,79.4,98.2L79.4,98.2z M107.8,98.4h-0.7
	c-0.1-0.2-0.2-0.5-0.3-0.9c-0.2-0.3-0.3-0.6-0.5-0.9s-0.4-0.6-0.7-0.8c-0.2-0.2-0.5-0.4-0.7-0.4s-0.5,0-0.8-0.1c-0.3,0-0.6,0-0.9,0
	h-0.6v11.4c0,0.2,0.1,0.4,0.1,0.6s0.3,0.3,0.5,0.4c0.1,0,0.4,0.1,0.8,0.2c0.4,0.1,0.7,0.1,0.9,0.1v0.7h-6.7V108c0.2,0,0.5,0,0.9-0.1
	c0.4,0,0.7-0.1,0.8-0.2c0.2-0.1,0.4-0.2,0.5-0.4c0.1-0.2,0.2-0.4,0.2-0.7V95.1H100c-0.2,0-0.5,0-0.8,0s-0.6,0-0.9,0.1
	c-0.2,0-0.5,0.2-0.7,0.4c-0.2,0.2-0.5,0.5-0.7,0.8s-0.4,0.6-0.5,1c-0.2,0.3-0.3,0.6-0.3,0.8h-0.7v-3.9h12.4V98.4z M125.2,108.8h-5.9
	v-0.7c0.5,0,1-0.1,1.3-0.2s0.5-0.2,0.5-0.4c0-0.1,0-0.1,0-0.2s0-0.2-0.1-0.2l-1.2-3.2h-5c-0.2,0.5-0.3,0.9-0.5,1.2
	c-0.1,0.3-0.2,0.7-0.3,1s-0.1,0.5-0.2,0.7c0,0.2,0,0.3,0,0.4c0,0.3,0.2,0.5,0.6,0.6c0.4,0.1,0.9,0.2,1.4,0.3v0.7h-5.4v-0.7
	c0.2,0,0.4-0.1,0.7-0.1c0.3-0.1,0.5-0.1,0.6-0.3c0.3-0.2,0.5-0.4,0.6-0.6c0.2-0.2,0.3-0.5,0.4-0.8c0.7-1.8,1.5-3.8,2.4-6
	s1.6-4.2,2.3-6h0.8l4.8,12.3c0.1,0.3,0.2,0.5,0.3,0.6c0.1,0.2,0.3,0.3,0.5,0.5c0.2,0.1,0.4,0.2,0.6,0.2c0.3,0.1,0.5,0.1,0.6,0.1v0.8
	H125.2z M119.5,103l-2.2-5.5l-2.1,5.5H119.5z M142.5,103.1c-0.2,0-0.4,0.1-0.6,0.1c-0.3,0-0.5,0.1-0.7,0.2s-0.3,0.2-0.4,0.4
	c-0.1,0.2-0.1,0.4-0.1,0.7v1.1c0,0.8,0,1.4,0,1.6c0,0.3,0,0.5,0,0.7c-0.9,0.4-1.8,0.7-2.7,0.9c-0.9,0.2-1.7,0.3-2.6,0.3
	c-0.9,0-1.8-0.2-2.6-0.5s-1.6-0.8-2.2-1.5c-0.6-0.6-1.1-1.4-1.5-2.3s-0.6-1.9-0.6-3.1c0-1.1,0.2-2.1,0.5-3c0.4-0.9,0.9-1.7,1.5-2.4
	c0.6-0.7,1.4-1.2,2.3-1.6c0.9-0.4,1.8-0.6,2.8-0.6c0.8,0,1.5,0.1,2.1,0.3c0.6,0.2,1.1,0.4,1.6,0.7l0.4-0.7h0.8l0.1,5h-0.8
	c-0.1-0.5-0.3-1.1-0.5-1.6s-0.5-1-0.8-1.4s-0.7-0.8-1.2-1c-0.5-0.3-1-0.4-1.7-0.4s-1.4,0.1-1.9,0.4c-0.6,0.3-1.1,0.7-1.5,1.3
	c-0.4,0.6-0.7,1.2-0.9,2.1c-0.2,0.8-0.3,1.8-0.3,2.8c0,0.9,0.1,1.8,0.3,2.6c0.2,0.8,0.5,1.5,1,2.1c0.4,0.6,0.9,1.1,1.6,1.4
	c0.6,0.3,1.3,0.5,2.1,0.5c0.6,0,1.1-0.1,1.6-0.3c0.5-0.2,0.8-0.4,1-0.6c0.1-0.4,0.1-0.7,0.1-1.1s0-0.7,0-0.9v-0.8
	c0-0.3,0-0.5-0.1-0.8c-0.1-0.2-0.2-0.4-0.5-0.5c-0.2-0.1-0.5-0.2-0.9-0.2c-0.4-0.1-0.7-0.1-0.9-0.1v-0.7h6.3v0.9H142.5z
	 M158.1,104.6l-0.3,4.2h-11.1v-0.7c0.2,0,0.4,0,0.7-0.1c0.3,0,0.5-0.1,0.6-0.1c0.2-0.1,0.3-0.2,0.4-0.4c0.1-0.2,0.1-0.4,0.1-0.6
	V96.7c0-0.2,0-0.4-0.1-0.6s-0.2-0.3-0.5-0.4c-0.1-0.1-0.4-0.2-0.6-0.2c-0.3-0.1-0.5-0.1-0.7-0.1v-0.7h6v0.7c-0.2,0-0.4,0-0.7,0.1
	s-0.5,0.1-0.7,0.2s-0.4,0.2-0.5,0.4c-0.1,0.2-0.1,0.4-0.1,0.6v9.6c0,0.4,0,0.8,0.1,1c0,0.2,0.1,0.4,0.3,0.6c0.2,0.1,0.4,0.2,0.7,0.2
	s0.7,0.1,1.3,0.1c0.2,0,0.5,0,0.8,0s0.5,0,0.8-0.1c0.2,0,0.5-0.1,0.7-0.2s0.3-0.2,0.4-0.3c0.3-0.3,0.6-0.8,1-1.4s0.6-1.1,0.8-1.5
	h0.6V104.6z M168.3,108.8h-6.4v-0.7c0.2,0,0.4,0,0.8-0.1c0.3,0,0.6-0.1,0.7-0.1c0.2-0.1,0.4-0.2,0.5-0.4c0.1-0.2,0.1-0.4,0.1-0.6
	V96.6c0-0.2,0-0.4-0.1-0.6s-0.2-0.3-0.5-0.4c-0.2-0.1-0.5-0.2-0.8-0.2c-0.3-0.1-0.6-0.1-0.7-0.1v-0.7h6.4v0.7c-0.2,0-0.5,0-0.7,0.1
	c-0.3,0-0.5,0.1-0.8,0.2s-0.4,0.2-0.5,0.4c-0.1,0.2-0.1,0.4-0.1,0.6v10.3c0,0.2,0,0.4,0.1,0.6s0.3,0.3,0.5,0.4
	c0.1,0.1,0.4,0.1,0.7,0.2s0.6,0.1,0.8,0.1V108.8z M187.7,95.3c-0.2,0-0.5,0.1-0.9,0.2s-0.7,0.2-0.8,0.3c-0.2,0.2-0.4,0.5-0.5,1
	s-0.1,1.1-0.1,1.8V109h-0.9l-8.6-11.7v7.4c0,0.8,0.1,1.5,0.2,1.9s0.3,0.8,0.5,0.9s0.5,0.3,1,0.4s0.8,0.2,1,0.2v0.7h-5.8v-0.7
	c0.2,0,0.5-0.1,0.9-0.2c0.4-0.1,0.7-0.2,0.8-0.3c0.2-0.2,0.4-0.5,0.5-0.9s0.1-1,0.1-2v-7c0-0.3-0.1-0.6-0.2-0.9s-0.2-0.5-0.4-0.7
	c-0.2-0.2-0.6-0.4-1-0.6s-0.7-0.2-1-0.3v-0.7h4.1l8,10.9v-6.8c0-0.8-0.1-1.5-0.2-1.9s-0.3-0.7-0.5-0.9c-0.2-0.1-0.5-0.2-0.9-0.4
	c-0.4-0.1-0.7-0.2-1-0.2v-0.7h5.8v0.8H187.7z M203.8,104.6l-0.3,4.2h-11.8v-0.7c0.2,0,0.5,0,0.8-0.1c0.3,0,0.6-0.1,0.7-0.1
	c0.2-0.1,0.4-0.2,0.5-0.4c0.1-0.2,0.1-0.4,0.1-0.6V96.7c0-0.2,0-0.4-0.1-0.6s-0.2-0.3-0.5-0.4c-0.2-0.1-0.4-0.2-0.7-0.2
	c-0.3-0.1-0.5-0.1-0.7-0.1v-0.7h11v3.4H202c-0.1-0.5-0.4-1-0.9-1.6c-0.4-0.6-0.9-0.9-1.3-0.9c-0.2,0-0.5,0-0.7-0.1c-0.3,0-0.6,0-1,0
	h-2.2v5.7h1.6c0.5,0,0.9,0,1.1-0.1s0.4-0.3,0.6-0.5c0.1-0.2,0.3-0.5,0.4-0.8s0.2-0.6,0.2-0.9h0.8v5.6h-0.8c0-0.3-0.1-0.7-0.2-1
	c-0.1-0.4-0.2-0.6-0.4-0.8c-0.2-0.3-0.4-0.4-0.7-0.5c-0.3-0.1-0.6-0.1-1-0.1h-1.6v4.3c0,0.4,0,0.8,0.1,1s0.2,0.4,0.4,0.6
	c0.2,0.1,0.4,0.2,0.7,0.2c0.3,0,0.7,0.1,1.3,0.1c0.2,0,0.5,0,0.9,0s0.7,0,0.9,0c0.3,0,0.5-0.1,0.8-0.1c0.3-0.1,0.5-0.2,0.6-0.3
	c0.3-0.3,0.6-0.8,1-1.5c0.3-0.7,0.6-1.1,0.6-1.4h0.6V104.6z M230,103.1c-0.2,0-0.4,0.1-0.6,0.1c-0.3,0-0.5,0.1-0.7,0.2
	s-0.3,0.2-0.4,0.4c-0.1,0.2-0.1,0.4-0.1,0.7v1.1c0,0.8,0,1.4,0,1.6c0,0.3,0,0.5,0,0.7c-0.9,0.4-1.8,0.7-2.7,0.9
	c-0.9,0.2-1.8,0.3-2.6,0.3c-0.9,0-1.8-0.2-2.6-0.5c-0.8-0.3-1.6-0.8-2.2-1.5c-0.6-0.6-1.1-1.4-1.5-2.3s-0.6-1.9-0.6-3.1
	c0-1.1,0.2-2.1,0.5-3c0.4-0.9,0.9-1.7,1.5-2.4c0.6-0.7,1.4-1.2,2.3-1.6s1.8-0.6,2.8-0.6c0.8,0,1.5,0.1,2.1,0.3
	c0.6,0.2,1.1,0.4,1.6,0.7l0.4-0.7h0.8l0.1,5h-0.8c-0.1-0.5-0.3-1.1-0.5-1.6s-0.5-1-0.8-1.4s-0.7-0.8-1.2-1c-0.5-0.3-1-0.4-1.7-0.4
	s-1.4,0.1-1.9,0.4c-0.6,0.3-1.1,0.7-1.5,1.3c-0.4,0.6-0.7,1.2-0.9,2.1c-0.2,0.8-0.3,1.8-0.3,2.8c0,0.9,0.1,1.8,0.3,2.6
	c0.2,0.8,0.5,1.5,1,2.1c0.4,0.6,0.9,1.1,1.6,1.4c0.6,0.3,1.3,0.5,2.1,0.5c0.6,0,1.1-0.1,1.6-0.3c0.5-0.2,0.8-0.4,1-0.6
	c0.1-0.4,0.1-0.7,0.1-1.1s0-0.7,0-0.9v-0.8c0-0.3,0-0.5-0.1-0.8c-0.1-0.2-0.2-0.4-0.5-0.5c-0.2-0.1-0.5-0.2-0.9-0.2
	c-0.4-0.1-0.7-0.1-0.9-0.1v-0.7h6.3L230,103.1L230,103.1z M245.6,96.2c0.6,0.7,1.1,1.5,1.5,2.4s0.5,2,0.5,3.1s-0.2,2.2-0.5,3.1
	c-0.4,0.9-0.9,1.7-1.5,2.4c-0.6,0.6-1.3,1.1-2.2,1.5c-0.8,0.4-1.7,0.5-2.6,0.5c-1,0-1.9-0.2-2.7-0.6c-0.8-0.4-1.6-0.9-2.2-1.6
	c-0.6-0.6-1.1-1.4-1.4-2.4c-0.3-0.9-0.5-1.9-0.5-3c0-1.2,0.2-2.2,0.5-3.1c0.4-0.9,0.9-1.7,1.5-2.4c0.6-0.7,1.4-1.2,2.2-1.5
	c0.8-0.4,1.7-0.5,2.6-0.5s1.8,0.2,2.7,0.5C244.3,95.1,245,95.6,245.6,96.2L245.6,96.2z M244.1,106.4c0.4-0.6,0.6-1.3,0.8-2.1
	c0.2-0.8,0.3-1.6,0.3-2.6s-0.1-1.9-0.3-2.7c-0.2-0.8-0.5-1.5-0.8-2.1c-0.4-0.6-0.8-1-1.4-1.3s-1.2-0.5-1.9-0.5
	c-0.8,0-1.5,0.2-2.1,0.6s-1,0.9-1.4,1.5c-0.3,0.6-0.6,1.3-0.7,2.1c-0.2,0.8-0.3,1.6-0.3,2.5c0,1,0.1,1.8,0.3,2.6
	c0.2,0.8,0.5,1.5,0.8,2.1c0.4,0.6,0.8,1.1,1.4,1.4c0.5,0.3,1.2,0.5,2,0.5c0.7,0,1.4-0.2,1.9-0.5C243.3,107.4,243.8,107,244.1,106.4
	L244.1,106.4z M264.4,104.6l-0.3,4.2h-11.8v-0.7c0.2,0,0.5,0,0.8-0.1c0.3,0,0.6-0.1,0.7-0.1c0.2-0.1,0.4-0.2,0.5-0.4
	c0.1-0.2,0.1-0.4,0.1-0.6V96.7c0-0.2,0-0.4-0.1-0.6s-0.2-0.3-0.5-0.4c-0.2-0.1-0.4-0.2-0.7-0.2c-0.3-0.1-0.5-0.1-0.7-0.1v-0.7h11
	v3.4h-0.8c-0.1-0.5-0.4-1-0.9-1.6c-0.4-0.6-0.9-0.9-1.3-0.9c-0.2,0-0.5,0-0.7-0.1c-0.3,0-0.6,0-1,0h-2.2v5.7h1.6
	c0.5,0,0.9,0,1.1-0.1s0.4-0.3,0.6-0.5c0.1-0.2,0.3-0.5,0.4-0.8s0.2-0.6,0.2-0.9h0.8v5.6h-0.8c0-0.3-0.1-0.7-0.2-1
	c-0.1-0.4-0.2-0.6-0.4-0.8c-0.2-0.3-0.4-0.4-0.7-0.5c-0.3-0.1-0.6-0.1-1-0.1h-1.6v4.3c0,0.4,0,0.8,0.1,1s0.2,0.4,0.4,0.6
	c0.2,0.1,0.4,0.2,0.7,0.2c0.3,0,0.7,0.1,1.3,0.1c0.2,0,0.5,0,0.9,0s0.7,0,0.9,0c0.3,0,0.5-0.1,0.8-0.1c0.3-0.1,0.5-0.2,0.6-0.3
	c0.3-0.3,0.6-0.8,1-1.5c0.3-0.7,0.6-1.1,0.7-1.4h0.5V104.6z M277.7,102.3c0.3,0.3,0.5,0.7,0.7,1.1c0.1,0.4,0.2,0.9,0.2,1.4
	c0,1.3-0.5,2.3-1.4,3.1c-0.9,0.8-2.1,1.2-3.5,1.2c-0.6,0-1.3-0.1-1.9-0.3c-0.6-0.2-1.2-0.4-1.7-0.7l-0.4,0.7H269l-0.1-4.9h0.8
	c0.2,0.6,0.4,1.1,0.6,1.6s0.5,0.9,0.9,1.4c0.3,0.4,0.8,0.7,1.2,0.9c0.5,0.2,1,0.3,1.6,0.3c0.5,0,0.9-0.1,1.2-0.2
	c0.3-0.1,0.6-0.3,0.8-0.5c0.2-0.2,0.4-0.5,0.5-0.8s0.2-0.6,0.2-1c0-0.6-0.2-1.1-0.5-1.6s-0.8-0.9-1.4-1.1c-0.4-0.2-0.9-0.4-1.5-0.6
	s-1-0.4-1.5-0.6c-0.8-0.4-1.4-0.8-1.9-1.4c-0.4-0.6-0.7-1.4-0.7-2.3c0-0.5,0.1-1.1,0.3-1.5c0.2-0.5,0.5-0.9,0.9-1.3
	c0.4-0.3,0.9-0.6,1.4-0.8c0.5-0.2,1.1-0.3,1.7-0.3c0.7,0,1.2,0.1,1.8,0.3c0.5,0.2,1,0.4,1.4,0.7l0.4-0.7h0.8l0.1,4.7h-0.8
	c-0.1-0.5-0.3-1.1-0.5-1.6s-0.4-0.9-0.7-1.3c-0.3-0.4-0.6-0.7-1.1-0.9c-0.4-0.2-0.9-0.3-1.5-0.3s-1.2,0.2-1.6,0.6
	c-0.5,0.4-0.7,0.9-0.7,1.5s0.1,1.1,0.4,1.5s0.7,0.7,1.3,1c0.5,0.2,1,0.4,1.4,0.6c0.5,0.2,0.9,0.4,1.4,0.6c0.4,0.2,0.8,0.4,1.2,0.6
	C277.1,101.7,277.5,102,277.7,102.3L277.7,102.3z M306.1,108.8h-5.9v-0.7c0.2,0,0.4,0,0.7-0.1c0.3,0,0.5-0.1,0.6-0.1
	c0.2-0.1,0.3-0.2,0.4-0.4c0.1-0.2,0.1-0.4,0.1-0.6v-5.1h-6.7v5c0,0.2,0,0.4,0.1,0.6s0.2,0.3,0.5,0.4c0.1,0.1,0.3,0.1,0.6,0.2
	s0.5,0.1,0.7,0.1v0.7h-5.9v-0.7c0.2,0,0.4,0,0.7-0.1c0.3,0,0.5-0.1,0.6-0.1c0.2-0.1,0.3-0.2,0.4-0.4c0.1-0.2,0.1-0.4,0.1-0.6V96.6
	c0-0.2,0-0.4-0.1-0.6s-0.2-0.3-0.4-0.4c-0.2-0.1-0.4-0.2-0.7-0.2c-0.3-0.1-0.5-0.1-0.7-0.1v-0.7h5.9v0.7c-0.2,0-0.4,0-0.7,0.1
	c-0.3,0.1-0.5,0.1-0.6,0.2c-0.2,0.1-0.4,0.2-0.5,0.4c-0.1,0.2-0.1,0.4-0.1,0.6v4.4h6.7v-4.3c0-0.2,0-0.4-0.1-0.6s-0.2-0.3-0.4-0.4
	c-0.2-0.1-0.4-0.2-0.7-0.2c-0.3-0.1-0.5-0.1-0.7-0.1v-0.7h5.9v0.7c-0.2,0-0.4,0-0.7,0.1c-0.3,0.1-0.5,0.1-0.6,0.2
	c-0.2,0.1-0.4,0.2-0.5,0.4c-0.1,0.2-0.1,0.4-0.1,0.6V107c0,0.2,0,0.4,0.1,0.6s0.2,0.3,0.5,0.4c0.1,0.1,0.3,0.1,0.6,0.2
	c0.3,0.1,0.5,0.1,0.7,0.1v0.5H306.1z"/>
<path class="st0" d="M323.1,104.6l-0.3,4.2H311v-0.7c0.2,0,0.5,0,0.8-0.1c0.3,0,0.6-0.1,0.7-0.1c0.2-0.1,0.4-0.2,0.4-0.4
	c0.1-0.2,0.1-0.4,0.1-0.6V96.7c0-0.2,0-0.4-0.1-0.6s-0.2-0.3-0.5-0.4c-0.2-0.1-0.4-0.2-0.7-0.2c-0.3-0.1-0.6-0.1-0.7-0.1v-0.7h11
	v3.4h-0.8c-0.1-0.5-0.4-1-0.9-1.6c-0.4-0.6-0.9-0.9-1.3-0.9c-0.2,0-0.5,0-0.7-0.1c-0.3,0-0.6,0-1,0h-2.2v5.7h1.6
	c0.5,0,0.9,0,1.1-0.1s0.4-0.3,0.6-0.5s0.3-0.5,0.4-0.8s0.2-0.6,0.2-0.9h0.8v5.6H319c0-0.3-0.1-0.7-0.2-1c-0.1-0.4-0.2-0.6-0.4-0.8
	c-0.2-0.3-0.4-0.4-0.7-0.5c-0.3-0.1-0.6-0.1-1-0.1h-1.6v4.3c0,0.4,0,0.8,0.1,1s0.2,0.4,0.4,0.6c0.2,0.1,0.4,0.2,0.7,0.2
	c0.3,0,0.7,0.1,1.3,0.1c0.2,0,0.5,0,0.9,0s0.7,0,0.9,0c0.3,0,0.5-0.1,0.8-0.1c0.3-0.1,0.5-0.2,0.6-0.3c0.3-0.3,0.6-0.8,1-1.5
	c0.3-0.7,0.6-1.1,0.7-1.4h0.6V104.6z M341.4,108.8h-3.8c-0.9-1.3-1.6-2.5-2.3-3.5c-0.7-1-1.4-2-2.2-3h-1.5v4.5c0,0.2,0,0.4,0.1,0.6
	s0.2,0.3,0.5,0.4c0.1,0,0.3,0.1,0.6,0.1c0.3,0,0.6,0.1,0.8,0.1v0.7h-6V108c0.2,0,0.4,0,0.7-0.1c0.3,0,0.5-0.1,0.6-0.1
	c0.2-0.1,0.3-0.2,0.4-0.4c0.1-0.2,0.1-0.4,0.1-0.6V96.5c0-0.2,0-0.4-0.1-0.6s-0.2-0.3-0.5-0.4c-0.2-0.1-0.4-0.1-0.6-0.2
	c-0.3,0-0.5-0.1-0.7-0.1v-0.7h6.6c0.6,0,1.2,0.1,1.7,0.2s1,0.3,1.4,0.6c0.4,0.3,0.7,0.6,1,1.1c0.2,0.4,0.4,1,0.4,1.6s-0.1,1-0.3,1.5
	c-0.2,0.4-0.4,0.8-0.7,1.1c-0.3,0.3-0.7,0.5-1.1,0.8c-0.4,0.2-0.9,0.4-1.4,0.5c0.7,0.9,1.3,1.7,1.8,2.4c0.5,0.6,1,1.4,1.7,2.3
	c0.3,0.4,0.6,0.7,0.8,0.9c0.2,0.2,0.5,0.3,0.7,0.5c0.2,0.1,0.4,0.2,0.7,0.2c0.3,0,0.5,0.1,0.7,0.1v0.5H341.4z M336.1,98.2
	c0-0.9-0.3-1.6-0.7-2.1c-0.5-0.5-1.2-0.8-2.1-0.8h-1.7v6.1h1.3c0.9,0,1.7-0.3,2.3-0.9C335.8,100,336.1,99.2,336.1,98.2L336.1,98.2z
	 M356.9,104.6l-0.3,4.2h-11.8v-0.7c0.2,0,0.5,0,0.8-0.1c0.3,0,0.6-0.1,0.7-0.1c0.2-0.1,0.4-0.2,0.4-0.4c0.1-0.2,0.1-0.4,0.1-0.6
	V96.7c0-0.2,0-0.4-0.1-0.6s-0.2-0.3-0.5-0.4c-0.2-0.1-0.4-0.2-0.7-0.2c-0.3-0.1-0.6-0.1-0.7-0.1v-0.7h11v3.4H355
	c-0.1-0.5-0.4-1-0.9-1.6c-0.4-0.6-0.9-0.9-1.3-0.9c-0.2,0-0.5,0-0.7-0.1c-0.3,0-0.6,0-1,0H349v5.7h1.6c0.5,0,0.9,0,1.1-0.1
	s0.4-0.3,0.6-0.5c0.1-0.2,0.3-0.5,0.4-0.8s0.2-0.6,0.2-0.9h0.8v5.6h-0.8c0-0.3-0.1-0.7-0.2-1c-0.1-0.4-0.2-0.6-0.4-0.8
	c-0.2-0.3-0.4-0.4-0.7-0.5c-0.3-0.1-0.6-0.1-1-0.1H349v4.3c0,0.4,0,0.8,0.1,1s0.2,0.4,0.4,0.6c0.2,0.1,0.4,0.2,0.7,0.2
	c0.3,0,0.7,0.1,1.3,0.1c0.2,0,0.5,0,0.9,0s0.7,0,0.9,0c0.3,0,0.5-0.1,0.8-0.1c0.3-0.1,0.5-0.2,0.6-0.3c0.3-0.3,0.6-0.8,1-1.5
	c0.3-0.7,0.6-1.1,0.7-1.4h0.5V104.6z"/>
</svg>
